<svg xmlns="http://www.w3.org/2000/svg" xmlns:xlink="http://www.w3.org/1999/xlink" version="1.1" x="0px" y="0px" viewBox="0 0 100 100" enable-background="new 0 0 100 100" xml:space="preserve"><path d="M91.439,40.928c-1.787-0.806-3.544-1.598-5.572-2.513c0.898,3.111,0.564,5.593-2.45,6.971  c-1.725,0.788-3.92,0.299-5.215-1.07c-1.572-1.662-1.635-3.612-0.136-6.715c-5.204-0.355-9.633,1.786-14.205,4.106  c0-0.795,0-1.351,0-2.022c8.036-6.041,16.587-7.218,25.911-2.222c-0.194-0.471-0.306-0.747-0.422-1.021  c-0.102-0.241-0.208-0.48-0.389-0.897c0.728,0,1.329,0,1.925,0c6.882,8.641,7.322,19.507,0.121,28.973c-0.56,0-1.177,0-2.032,0  c1.798-3.857,3.695-7.477,4.027-11.642C93.325,48.791,92.995,44.827,91.439,40.928z M81.553,43.861  c1.421,0.048,2.81-1.282,2.854-2.732c0.044-1.462-1.234-2.843-2.674-2.888c-1.448-0.046-2.808,1.25-2.845,2.712  C78.85,42.429,80.119,43.813,81.553,43.861z"></path><path d="M33.229,38.463c0.692,3.74,0.118,5.489-2.055,6.703c-1.639,0.916-3.869,0.709-5.298-0.491  c-1.867-1.568-2.029-3.427-0.586-7.086c-2.53-0.221-4.963,0.228-7.288,1.06c-2.305,0.825-4.517,1.909-6.894,2.932  c0-0.712,0-1.282,0-1.822c9.522-7.46,20.268-6.936,29.022-0.155c0,0.542,0,1.117,0,1.943C37.799,40.505,35.625,39.534,33.229,38.463  z M31.696,41.04c-0.004-1.462-1.331-2.804-2.767-2.798c-1.454,0.006-2.757,1.333-2.753,2.802c0.004,1.468,1.337,2.833,2.753,2.82  C30.365,43.85,31.7,42.488,31.696,41.04z"></path><path d="M49.058,50.842c0.871,0,1.664,0,2.547,0c0.173,0.754,0.298,1.484,0.509,2.188c0.485,1.614,1.523,2.463,3.128,2.595  c1.537,0.126,2.924-0.138,3.746-1.637c0.82-1.494,0.608-2.915-0.424-4.217c-0.433-0.546-0.935-1.045-1.448-1.519  c-1.763-1.627-3.037-3.466-2.972-6.013c0.054-2.142,0.011-4.286,0.011-6.566c0.844,0,1.673,0,2.719,0  c0.036,0.825,0.085,1.664,0.106,2.504c0.033,1.292,0.045,2.585,0.07,3.878c0.033,1.721,0.799,3.078,2.034,4.235  c0.785,0.735,1.558,1.498,2.233,2.332c2.507,3.099,1.167,7.854-2.584,9.181c-1.943,0.687-3.889,0.628-5.854-0.048  C50.358,56.888,48.448,53.421,49.058,50.842z"></path><path d="M8.324,35.406c0.56,0.027,1.12,0.054,2.002,0.097c-2.469,4.745-4.264,9.36-4.215,14.597  c0.048,5.174,1.779,9.753,4.152,14.215c-0.279,0.145-0.411,0.267-0.55,0.276c-0.423,0.027-0.849,0.01-1.201,0.01  C1.872,56.608,0.626,45.382,8.324,35.406z"></path><path d="M35.045,60.686c0-0.558,0-1.132,0-1.713c3.186,1.159,6.23,2.513,9.409,3.354c3.297,0.873,6.78,0.87,10.081,0.01  c3.195-0.832,6.26-2.164,9.463-3.305c0,0.411,0,1.007,0,1.632C54.873,67.835,44.194,67.679,35.045,60.686z"></path></svg>