<svg height="96" width="96" xmlns="http://www.w3.org/2000/svg" xmlns:xlink="http://www.w3.org/1999/xlink"><linearGradient id="a"><stop offset="0" stop-color="#fff"/><stop offset="1" stop-color="#fff" stop-opacity="0"/></linearGradient><linearGradient id="b" gradientUnits="userSpaceOnUse" x1="36.357143" x2="36.357143" xlink:href="#a" y1="6" y2="63.893143"/><filter id="c" color-interpolation-filters="sRGB" height="1.384" width="1.384" x="-.192" y="-.192"><feGaussianBlur stdDeviation="5.28"/></filter><linearGradient id="d" gradientUnits="userSpaceOnUse" x1="48" x2="48" xlink:href="#a" y1="20.220806" y2="138.66119"/><radialGradient id="e" cx="48" cy="90.171875" gradientTransform="matrix(1.1573129 0 0 .99590774 -7.551021 .197132)" gradientUnits="userSpaceOnUse" r="42" xlink:href="#a"/><clipPath id="f"><rect height="84" rx="6" width="84" x="6" y="6"/></clipPath><linearGradient id="g" gradientUnits="userSpaceOnUse" x1="48" x2="48" y1="90" y2="5.987717"><stop offset="0" stop-color="#4c6d37"/><stop offset="1" stop-color="#75ac54"/></linearGradient><linearGradient id="h" gradientTransform="matrix(1.0058652 0 0 .994169 100 0)" gradientUnits="userSpaceOnUse" x1="45.447727" x2="45.447727" y1="92.539597" y2="7.01654"><stop offset="0"/><stop offset="1" stop-opacity=".588235"/></linearGradient><linearGradient id="i" gradientTransform="matrix(1.0238095 0 0 1.0119048 -1.142857 -98.071429)" gradientUnits="userSpaceOnUse" x1="32.251034" x2="32.251034" xlink:href="#h" y1="6.131708" y2="90.238609"/><linearGradient id="j" gradientTransform="translate(0 -97)" gradientUnits="userSpaceOnUse" x1="32.251034" x2="32.251034" xlink:href="#h" y1="6.131708" y2="90.238609"/><linearGradient id="k" gradientUnits="userSpaceOnUse" x1="48" x2="48" y1="6" y2="109.10714"><stop offset="0" stop-color="#fffec0"/><stop offset="1" stop-color="#fff" stop-opacity="0"/></linearGradient><linearGradient id="l" gradientUnits="userSpaceOnUse" x1="39.00000043625" x2="39.00000043625" y1="15.99999954" y2="78.99999981069"><stop offset="0" stop-color="#d5b742"/><stop offset=".34920636" stop-color="#f5e6aa"/><stop offset=".5714286" stop-color="#e0bf55"/><stop offset="1" stop-color="#8a6e24"/></linearGradient><g fill="url(#i)"><path d="m12-95.03125c-5.5110903 0-10.03125 4.52016-10.03125 10.03125v71c0 5.5110902 4.5201598 10.03125 10.03125 10.03125h72c5.51109 0 10.03125-4.5201597 10.03125-10.03125v-71c0-5.51109-4.52016-10.03125-10.03125-10.03125z" opacity=".08" transform="scale(1 -1)"/><path d="m12-94.03125c-4.971633 0-9.03125 4.059617-9.03125 9.03125v71c0 4.9716329 4.0596171 9.03125 9.03125 9.03125h72c4.971633 0 9.03125-4.059617 9.03125-9.03125v-71c0-4.971633-4.059617-9.03125-9.03125-9.03125z" opacity=".1" transform="scale(1 -1)"/><path d="m12-93c-4.4091333 0-8 3.590867-8 8v71c0 4.4091333 3.5908667 8 8 8h72c4.409133 0 8-3.5908667 8-8v-71c0-4.409133-3.590867-8-8-8z" opacity=".2" transform="scale(1 -1)"/><rect height="85" opacity=".3" rx="7" transform="scale(1 -1)" width="86" x="5" y="-92"/></g><rect fill="url(#j)" height="84" opacity=".45" rx="6" transform="scale(1 -1)" width="84" x="6" y="-91"/><rect fill="url(#g)" height="84" rx="6" width="84" x="6" y="6"/><path d="m12 6c-3.324 0-6 2.676-6 6v2 68 2c0 .334721.04135.6507.09375.96875.0487.295596.09704.596915.1875.875.00988.03038.020892.0636.03125.09375.098865.287771.2348802.547452.375.8125.1445918.273507.3156161.535615.5.78125s.3737765.473472.59375.6875c.439947.428056.94291.814526 1.5 1.09375.278545.139612.5734731.246947.875.34375-.2562018-.100222-.4867109-.236272-.71875-.375-.00741-.0044-.023866.0045-.03125 0-.031933-.0193-.062293-.04251-.09375-.0625-.120395-.0767-.2310226-.163513-.34375-.25-.1061728-.0808-.2132809-.161112-.3125-.25-.1779299-.161433-.3474596-.345388-.5-.53125-.1075789-.130255-.2183939-.265285-.3125-.40625-.025089-.03838-.038446-.08587-.0625-.125-.064763-.103032-.1302275-.204517-.1875-.3125-.1010083-.194706-.2056748-.415701-.28125-.625-.00796-.02181-.023589-.04055-.03125-.0625-.0318251-.09195-.0358045-.186831-.0625-.28125-.0303323-.106618-.0703894-.203031-.09375-.3125-.0728786-.341512-.125-.698205-.125-1.0625v-2-68-2c0-2.781848 2.2181517-5 5-5h2 68 2c2.781848 0 5 2.218152 5 5v2 68 2c0 .364295-.05212.720988-.125 1.0625-.04415.206893-.08838.397658-.15625.59375-.0077.02195-.0233.04069-.03125.0625-.06274.173739-.138383.367449-.21875.53125-.04158.0828-.07904.169954-.125.25-.0546.09721-.126774.18835-.1875.28125-.09411.140965-.204921.275995-.3125.40625-.143174.17445-.303141.346998-.46875.5-.01117.0102-.01998.02115-.03125.03125-.138386.125556-.285091.234436-.4375.34375-.102571.07315-.204318.153364-.3125.21875-.0074.0045-.02384-.0044-.03125 0-.232039.138728-.462548.274778-.71875.375.301527-.0968.596455-.204138.875-.34375.55709-.279224 1.060053-.665694 1.5-1.09375.219973-.214028.409366-.441865.59375-.6875s.355408-.507743.5-.78125c.14012-.265048.276135-.524729.375-.8125.01041-.03078.02133-.06274.03125-.09375.09046-.278085.1388-.579404.1875-.875.0524-.31805.09375-.634029.09375-.96875v-2-68-2c0-3.324-2.676-6-6-6z" fill="url(#b)" opacity=".5"/><path d="m12 90c-3.324 0-6-2.676-6-6v-2-68-2c0-.334721.04135-.6507.09375-.96875.0487-.295596.09704-.596915.1875-.875.00988-.03038.020892-.0636.03125-.09375.098865-.287771.2348802-.547452.375-.8125.1445918-.273507.3156161-.535615.5-.78125s.3737765-.473472.59375-.6875c.439947-.428056.94291-.814526 1.5-1.09375.278545-.139612.5734731-.246947.875-.34375-.2562018.100222-.4867109.236272-.71875.375-.00741.0044-.023866-.0045-.03125 0-.031933.0193-.062293.04251-.09375.0625-.120395.0767-.2310226.163513-.34375.25-.1061728.0808-.2132809.161112-.3125.25-.1779299.161433-.3474596.345388-.5.53125-.1075789.130255-.2183939.265285-.3125.40625-.025089.03838-.038446.08587-.0625.125-.064763.103032-.1302275.204517-.1875.3125-.1010083.194706-.2056748.415701-.28125.625-.00796.02181-.023589.04055-.03125.0625-.0318251.09195-.0358045.186831-.0625.28125-.0303323.106618-.0703894.203031-.09375.3125-.0728786.341512-.125.698205-.125 1.0625v2 68 2c0 2.781848 2.2181517 5 5 5h2 68 2c2.781848 0 5-2.218152 5-5v-2-68-2c0-.364295-.05212-.720988-.125-1.0625-.04415-.206893-.08838-.397658-.15625-.59375-.0077-.02195-.0233-.04069-.03125-.0625-.06274-.173739-.138383-.367449-.21875-.53125-.04158-.0828-.07904-.169954-.125-.25-.0546-.09721-.126774-.18835-.1875-.28125-.09411-.140965-.204921-.275995-.3125-.40625-.143174-.17445-.303141-.346998-.46875-.5-.01117-.0102-.01998-.02115-.03125-.03125-.138386-.125556-.285091-.234436-.4375-.34375-.102571-.07315-.204318-.153364-.3125-.21875-.0074-.0045-.02384.0044-.03125 0-.232039-.138728-.462548-.274778-.71875-.375.301527.0968.596455.204138.875.34375.55709.279224 1.060053.665694 1.5 1.09375.219973.214028.409366.441865.59375.6875s.355408.507743.5.78125c.14012.265048.276135.524729.375.8125.01041.03078.02133.06274.03125.09375.09046.278085.1388.579404.1875.875.0524.31805.09375.634029.09375.96875v2 68 2c0 3.324-2.676 6-6 6z" fill="url(#e)" opacity=".2"/><path d="m20.875 6 25.78125 40.65625-40.65625-26.15625v18.5l40.21875 9-40.21875 8.75v18.375l40.65625-25.78125-26.15625 40.65625h18.5l9-40.21875 8.75 40.21875h18.375l-25.78125-40.65625 40.65625 26.15625v-18.5l-40.21875-9 40.21875-8.75v-18.375l-40.65625 25.78125 26.15625-40.65625h-18.5l-9 40.21875-8.75-40.21875z" fill="url(#k)" opacity=".3"/><rect height="66" rx="12" style="opacity:.1;stroke:#fff;stroke-width:.5;stroke-linecap:round;clip-path:url(#f);fill:url(#d);filter:url(#c)" width="66" x="15" y="15"/><path d="m44 13.96875c-2.438202.202659-2.929847 2.881993-2.71875 4.839567v2.972933c-6.406023 1.364024-11.980794 6.478393-13.192979 13.012225-1.534522 6.569535 1.030429 14.194463 6.912082 17.74076 1.626201 1.348745 5.900956 2.714394 6.281656 3.241018-3.894782.000127-7.798698-.187756-11.688259.006-3.1163.818336-2.31229 4.49604-1.911431 6.843673.995507 5.414112 4.740358 10.475426 9.880181 12.437577 1.593357 1.210879 4.965363.163863 3.705674 3.294983-.100072 1.995998-.265056 4.815864 2.150277 5.521992 2.679593.311839 5.430461.122673 8.139123.127967 2.463387.175917 3.639935-2.615378 3.161176-4.708476 0-1.099655 0-2.199311 0-3.298966 6.12406-1.426869 11.71351-5.949119 13.290716-12.190368 1.862063-6.109094.157772-13.655542-5.009466-17.528385-1.526102-1.734051-6.283531-3.441612-6.467626-4.030882 3.117013-.190794 6.378441.400273 9.417166-.290673 2.842067-1.643884 1.437137-5.375568 1.117854-7.95517-1.155023-5.279723-5.115915-9.93476-10.31284-11.524283-3.288672-.0052-1.558746-3.721466-2.090546-5.812857-.152232-2.368346-2.880904-3.036972-4.840558-2.698635-1.94115 0-3.8823 0-5.82345 0zm3.15625 22.59375c2.577313-1.194887 4.257378 4.842893 1.042574 2.449101-1.323317-.529846-4.268075-1.517989-1.042574-2.449101zm-2.78125 20.28125c2.029288.869219 4.43968 1.30929 6.0625 2.84375-1.036335 1.866289-4.767967 1.659284-5.141902-.681119-.242222-.775815-.082214-1.690048-.920598-2.162631z" opacity=".05"/><path d="m44.09375 15c-1.455694.117754-2.009608 1.713686-1.78125 2.974178v4.588322c-5.464292 1.002245-10.545068 4.630826-12.471808 9.963066-2.494383 6.356963-.880005 14.451213 4.853688 18.527968 4.61712 3.392231 10.451949 4.35502 15.421929 7.047724 3.497855 1.735061-.617329 4.652938-2.988473 3.754474-2.14949-.06756-2.897144-2.104071-3.096586-3.886982-.670116-1.603701-2.644237-1.131288-4.012634-1.199049-3.398437.02696-6.824655-.124559-10.206116.01155-1.439305.332405-1.748271 2.055137-1.424493 3.306219.363442 5.930888 3.82408 11.901448 9.554696 14.052583 1.220329 1.105867 4.531258.290506 4.369797 2.240376.09966 1.769135-.197639 3.597178.143447 5.331162.527921 1.499335 2.311284 1.340788 3.585253 1.28841 2.064798-.06559 4.165439.129355 6.2088-.09375 1.389411-.359666 1.590339-1.961815 1.4375-3.163487 0-1.497587 0-2.995175 0-4.492763 5.448244-1.141152 10.643421-4.579091 12.701096-9.922436 2.590384-6.128767 1.369466-14.009984-4.006454-18.270678-4.757791-3.989853-11.102618-5.023482-16.441663-7.93759-3.398538-1.505122.607833-4.599932 2.836548-3.498356 1.905112.474447 2.221803 2.524573 2.316723 4.16031.359666 1.389411 1.961815 1.590339 3.163487 1.4375 3.580034-.021133 7.167048.042069 10.742763-.031251 1.459984-.276212 1.907934-1.97624 1.580681-3.251063-.181038-5.459228-2.887207-11.153259-8.017259-13.546213-1.338682-1.193845-4.397123-.845488-4.875922-2.393842-.06631-1.848031.130438-3.732348-.09375-5.558882-.359666-1.389411-1.961815-1.590339-3.163487-1.4375-2.112171 0-4.224342 0-6.336513 0z" opacity=".08"/><path d="m44.21875 16a.99381961.99381961 0 0 0 -.90625 1v6.28125c-3.751112.663057-6.983215 2.178385-9.4375 4.71875-2.752824 2.892836-4.156254 6.549262-4.15625 10.75-.000004 5.129999 2.164083 9.276084 6.34375 12.0625 1.693937 1.180655 5.296136 2.689469 11.1875 4.84375 1.90463.698376 3.30621 1.432714 4.15625 2.15625s1.124992 1.34788 1.125 1.96875c-.00002 1.003061-.371165 1.640524-1.375 2.25a.99381961.99381961 0 0 0 -.03125.03125c-.872574.581709-1.879377.843757-3.125.84375-1.434819.000007-2.525972-.359297-3.4375-1.125-.887113-.745155-1.30631-1.682922-1.34375-3.03125a.99381961.99381961 0 0 0 -1-.96875l-11.90625-.0625a.99381961.99381961 0 0 0 -1 1.03125c.136885 4.51734 1.526335 8.322782 4.15625 11.1875 2.439328 2.613574 5.8125 4.12397 9.84375 4.78125v6.28125a.99381961.99381961 0 0 0 1 1h7.375a.99381961.99381961 0 0 0 1-1v-6.4375c3.954114-.811093 7.281414-2.41358 9.75-4.96875 2.797478-2.937388 4.24996-6.687581 4.25-11.0625-.00004-4.97179-2.230063-9.023332-6.4375-11.84375-1.834498-1.289054-5.522063-2.906117-11.375-5.0625-1.936398-.74475-3.347672-1.488872-4.21875-2.1875s-1.125004-1.255874-1.125-1.6875c-.000012-1.031261.354746-1.667897 1.25-2.3125a.99381961.99381961 0 0 0 0-.03125c.796274-.615283 1.690009-.906218 2.8125-.90625 1.453727.000032 2.451872.40985 3.21875 1.28125a.99381961.99381961 0 0 0 .03125 0c.781113.852174 1.156227 1.961469 1.15625 3.4375a.99381961.99381961 0 0 0 1 1h11.625a.99381961.99381961 0 0 0 1-1c-.0455-4.457101-1.197862-8.13426-3.53125-10.875-2.172831-2.552155-5.406544-4.168662-9.40625-5.03125v-6.3125a.99381961.99381961 0 0 0 -1-1h-7.375a.99381961.99381961 0 0 0 -.09375 0z" opacity=".15"/><path d="m51.679672 73.837782v7.162218h-7.359343v-7.030801c-4.292963-.525669-7.665991-2.10267-10.119096-4.731006-2.453119-2.672137-3.745384-6.176583-3.876797-10.513346l11.893223.06571c.04379 1.577013.613263 2.825472 1.70842 3.74538 1.095122.919926 2.453094 1.379884 4.073921 1.379876 1.401757.000008 2.628314-.350437 3.679672-1.051334 1.226531-.744686 1.839809-1.774117 1.839835-3.088296-.000026-1.927433-1.971277-3.613947-5.913758-5.059548-5.869965-2.146456-9.527731-3.723457-10.973305-4.731006-3.942511-2.628313-5.913761-6.373689-5.913757-11.236139-.000004-3.986274 1.29226-7.3374 3.876796-10.053389 2.49691-2.584485 5.738522-4.139582 9.724846-4.665297v-7.0308h7.359343v7.0308c8.542061 1.533243 12.856909 6.592785 12.944558 15.178644h-11.63039c-.000026-1.664579-.481887-3.022552-1.445585-4.073921-.963748-1.095103-2.277915-1.642673-3.942506-1.64271-1.314187.000037-2.453132.372385-3.416837 1.117042-1.095156.788537-1.642726 1.839871-1.642711 3.154004-.000015 1.664646 1.993139 3.263549 5.979467 4.796715 5.826118 2.146502 9.549592 3.78921 11.170431 4.928131 3.986273 2.672163 5.979427 6.351832 5.979465 11.039014-.000038 4.161542-1.314205 7.622182-3.942504 10.38193-2.496952 2.584531-5.848078 4.22724-10.053388 4.928131" opacity=".3"/><path d="m51.679672 72.837782v7.162218h-7.359343v-7.030801c-4.292963-.525669-7.665991-2.10267-10.119096-4.731006-2.453119-2.672137-3.745384-6.176583-3.876797-10.513346l11.893223.06571c.04379 1.577013.613263 2.825472 1.70842 3.74538 1.095122.919926 2.453094 1.379884 4.073921 1.379876 1.401757.000008 2.628314-.350437 3.679672-1.051334 1.226531-.744686 1.839809-1.774117 1.839835-3.088296-.000026-1.927433-1.971277-3.613947-5.913758-5.059548-5.869965-2.146456-9.527731-3.723457-10.973305-4.731006-3.942511-2.628313-5.913761-6.373689-5.913757-11.236139-.000004-3.986274 1.29226-7.3374 3.876796-10.053389 2.49691-2.584485 5.738522-4.139582 9.724846-4.665297v-7.0308h7.359343v7.0308c8.542061 1.533243 12.856909 6.592785 12.944558 15.178644h-11.63039c-.000026-1.664579-.481887-3.022552-1.445585-4.073921-.963748-1.095103-2.277915-1.642673-3.942506-1.64271-1.314187.000037-2.453132.372385-3.416837 1.117042-1.095156.788537-1.642726 1.839871-1.642711 3.154004-.000015 1.664646 1.993139 3.263549 5.979467 4.796715 5.826118 2.146502 9.549592 3.78921 11.170431 4.928131 3.986273 2.672163 5.979427 6.351832 5.979465 11.039014-.000038 4.161542-1.314205 7.622182-3.942504 10.38193-2.496952 2.584531-5.848078 4.22724-10.053388 4.928131" fill="url(#l)"/><path d="m44.3125 16v1h7.375v-1zm0 7.03125c-3.986324.525715-7.22184 2.071765-9.71875 4.65625-2.584536 2.715989-3.875004 6.076226-3.875 10.0625 0 .149433.02753.290177.03125.4375.117863-3.737405 1.38301-6.914104 3.84375-9.5 2.49691-2.584485 5.732426-4.130535 9.71875-4.65625zm7.375 0v1c8.200498 1.471935 12.497566 6.215686 12.90625 14.1875h.03125c-.087649-8.585859-4.395439-13.654257-12.9375-15.1875zm-9.09375 14.125c-.02756.195262-.0625.385258-.0625.59375-.000015 1.664646 2.013672 3.279334 6 4.8125 5.826118 2.146502 9.535411 3.798579 11.15625 4.9375 3.859321 2.587062 5.845805 6.117972 5.96875 10.59375.0055-.188247.03125-.371294.03125-.5625-.000038-4.687182-2.013727-8.359087-6-11.03125-1.620839-1.138921-5.330132-2.790998-11.15625-4.9375-3.662256-1.408526-5.639787-2.886753-5.9375-4.40625zm-12.28125 20.5625c.01032.340544.06912.66972.09375 1l11.8125.0625c.04379 1.577013.623593 2.830092 1.71875 3.75 1.095122.919926 2.441673 1.375008 4.0625 1.375 1.401757.000008 2.636142-.330353 3.6875-1.03125 1.226531-.744686 1.843724-1.779571 1.84375-3.09375-.000002-.136586-.0427-.272083-.0625-.40625-.163739 1.029662-.749313 1.873461-1.78125 2.5-1.051358.700897-2.285743 1.031258-3.6875 1.03125-1.620827.000008-2.967378-.455074-4.0625-1.375-1.095157-.919908-1.67496-2.172987-1.71875-3.75z" fill="#fff" opacity=".3"/><path d="m47.59375 31.5c-1.314187.000037-2.442545.380343-3.40625 1.125-1.095156.788537-1.656265 1.810867-1.65625 3.125-.000001.135329.03616.27179.0625.40625.146174-1.035482.672345-1.867817 1.59375-2.53125.963705-.744657 2.092063-1.124963 3.40625-1.125 1.664591.000037 3.005002.529897 3.96875 1.625.963698 1.051369 1.437474 2.429171 1.4375 4.09375h11.625c-.0035-.343314-.01423-.667962-.03125-1h-11.59375c-.000026-1.664579-.473802-3.042381-1.4375-4.09375-.963748-1.095103-2.304159-1.624963-3.96875-1.625zm-16.84375 5.6875c-.0059.188023-.03125.371562-.03125.5625-.000004 4.86245 1.963739 8.621687 5.90625 11.25 1.445574 1.007549 5.098785 2.572294 10.96875 4.71875 3.6631 1.343159 5.615395 2.897129 5.875 4.65625.03088-.194165.0625-.38525.0625-.59375-.000026-1.927433-1.995019-3.616899-5.9375-5.0625-5.869965-2.146456-9.523176-3.711201-10.96875-4.71875-3.82135-2.54754-5.757566-6.166033-5.875-10.8125zm34.90625 19.90625c-.115246 3.908888-1.429961 7.179551-3.9375 9.8125-2.496952 2.584531-5.82594 4.236609-10.03125 4.9375v1c4.20531-.700891 7.534298-2.352969 10.03125-4.9375 2.628299-2.759748 3.968712-6.213458 3.96875-10.375-.000001-.149275-.02721-.290269-.03125-.4375zm-35.34375.625c.131413 4.336763 1.421881 7.859113 3.875 10.53125 2.453105 2.628336 5.832037 4.193081 10.125 4.71875v-1c-4.292963-.525669-7.671895-2.090414-10.125-4.71875-2.260488-2.462307-3.49216-5.655482-3.78125-9.53125zm14 21.28125v1h7.375v-1z" fill="#503a16" opacity=".4"/></svg>