<svg height="48" width="48" xmlns="http://www.w3.org/2000/svg" xmlns:xlink="http://www.w3.org/1999/xlink"><linearGradient id="a"><stop offset="0" stop-color="#fff"/><stop offset="1" stop-color="#fff" stop-opacity="0"/></linearGradient><linearGradient id="b"><stop offset="0"/><stop offset="1" stop-opacity="0"/></linearGradient><linearGradient id="c"><stop offset="0" stop-opacity="0"/><stop offset=".5"/><stop offset="1" stop-opacity="0"/></linearGradient><linearGradient id="d" gradientUnits="userSpaceOnUse" x1="17.536978" x2="44.375" xlink:href="#a" y1="4.823194" y2="57.75"/><linearGradient id="e" gradientTransform="matrix(1.307692 0 0 1.299366 -21.30769 -16.64017)" gradientUnits="userSpaceOnUse" x1="30.935923" x2="30.935923" y1="44.293907" y2="-11.761294"><stop offset="0" stop-color="#8ae234"/><stop offset="1" stop-color="#4e9a06"/></linearGradient><linearGradient id="f" gradientTransform="matrix(.583333 0 0 1.142857 13.16666 -6.714286)" gradientUnits="userSpaceOnUse" x1="30.992197" x2="30.992197" xlink:href="#c" y1="46.986557" y2="43.494534"/><radialGradient id="g" cx="34" cy="45" gradientTransform="matrix(2 0 0 1.333333 -35 -15)" gradientUnits="userSpaceOnUse" r="1.5" xlink:href="#b"/><radialGradient id="h" cx="34" cy="45" gradientTransform="matrix(2 0 0 1.333333 -97.5 -105)" gradientUnits="userSpaceOnUse" r="1.5" xlink:href="#b"/><linearGradient id="i" gradientTransform="matrix(.749999 0 0 1.142857 19.49999 -6.714286)" gradientUnits="userSpaceOnUse" x1="30.992197" x2="30.992197" xlink:href="#c" y1="46.986557" y2="43.494534"/><radialGradient id="j" cx="34" cy="45" gradientTransform="matrix(2 0 0 1.333333 -23 -15)" gradientUnits="userSpaceOnUse" r="1.5" xlink:href="#b"/><radialGradient id="k" cx="34" cy="45" gradientTransform="matrix(2 0 0 1.333333 -108.5 -105)" gradientUnits="userSpaceOnUse" r="1.5" xlink:href="#b"/><linearGradient id="l" gradientUnits="userSpaceOnUse" x1="6" x2="52" xlink:href="#a" y1="-13.5" y2="89"/><g><g opacity=".5" transform="matrix(1.421054 0 0 1.124999 -24.65793 -8.874957)"><path d="m29.5 43h3.5v4h-3.5z" fill="url(#f)"/><path d="m33 43h3v4h-3z" fill="url(#g)"/><path d="m-29.5-47h3v4h-3z" fill="url(#h)" transform="scale(-1)"/></g><g opacity=".5" transform="matrix(1.333332 0 0 1.124999 -21.99992 -8.874957)"><path d="m40.5 43h4.5v4h-4.5z" fill="url(#i)"/><path d="m45 43h3v4h-3z" fill="url(#j)"/><path d="m-40.5-47h3v4h-3z" fill="url(#k)" transform="scale(-1)"/></g><g stroke-dashoffset="1.5" stroke-linecap="square"><path d="m27 3.5c-1.307692 0-4.5.9896249-4.5 3.5 0 1.3207666 1.028896 2.915899 1 5.5h-9v12c-2.656249.040605-4.651443-3.040605-6-3-2.5252282.078412-2.9999997 2.789856-2.9999997 4.089222 0 3.898099 1.4735607 4.90029 3.9999997 4.910778 1.838942 0 1.771635-1.040605 5-1v13h10c0-3.248415-3-3.9-3-6.5 0-1.949049 1.038462-2.5 3-2.5 3.188547 0 6 .4 6 3 0 1.597864-1 3.401268-1 6h10v-16c-3.998999 0-4.5 2-6.5 2-2.526452 0-4.5-1.601902-4.5-5.5 0-2 1.473543-3.5 4-3.5 2.615385 0 2.345719 2 7 2v-9h-11c-.046674-3.187059 3.01813-4.5475726 3-6.5-.043464-2.5099983-2.538462-2.5-4.5-2.5z" fill="url(#e)" stroke="#4e9a06"/><path d="m37 16.5c-.31058 0-1.097953.120774-1.65625.40625s-.84375.55928-.84375 1.09375c0 .172902.204812.780018.46875 1.5625s.544233 1.768984.53125 2.9375c-.000309.552157-.447843.999691-1 1h-6v8c-.000309.552157-.447843.999691-1 1-1.357751.020888-2.402107-.650126-3.1875-1.1875-.392697-.268687-.72199-.506956-.96875-.65625s-.394749-.153758-.3125-.15625c-.634113.019816-.901924.278147-1.15625.6875s-.375 1.002235-.375 1.3125c0 1.381277.275657 2.148011.5625 2.5s.641954.496676 1.4375.5c.458568 0 .575894-.120469 1.15625-.40625s1.46989-.611141 2.84375-.59375c.552157.000309.999691.447843 1 1v9h4.8125c-.141959-.376104-.350765-.716743-.625-1.09375-.483063-.664094-1.1875-1.572438-1.1875-2.90625 0-.972324.392215-1.873904 1.09375-2.375s1.545088-.625 2.40625-.625c1.287402 0 2.535293.109982 3.59375.59375s1.90625 1.562155 1.90625 2.90625c0 .886051-.321522 1.585996-.5625 2.28125-.132568.382476-.167662.816716-.25 1.21875h5.8125v-9.84375c-.692821.080985-1.473859.133419-1.90625.28125-.65951.225482-1.239287.549747-2.09375.5625-1.147786.020821-2.270644-.316083-3-1.21875s-1-2.162493-1-3.78125c0-.689421.174983-1.570988.6875-2.40625s1.501277-1.59375 2.8125-1.59375c1.333486 0 2.143386.741529 2.75 1.1875.432971.318311.977135.525279 1.75.65625v-4.84375h-7c-.552157-.000309-.999691-.447843-1-1-.02193-1.507031.622147-2.609014 1.15625-3.40625s.846466-1.299408.84375-1.59375c-.010782-.626671-.127378-.616626-.5625-.78125s-1.202683-.21875-1.9375-.21875z" fill="none" stroke="url(#d)" stroke-width=".769254" transform="matrix(1.300556 0 0 1.299366 48.83859 -16.64017)"/><path d="m27 4.5c-.402545 0-1.470539.2013168-2.25.65625s-1.25 1.0108374-1.25 1.84375c0 .8033927 1.031904 2.6469288 1 5.5.000986.265517-.104055.520444-.291805.708195-.187751.18775-.442678.292791-.708195.291805h-8v11c.000986.265517-.104055.520444-.291805.708195-.187751.18775-.442678.292791-.708195.291805-1.716997.026247-3.052691-.926912-4.09375-1.71875-.5205296-.395919-.9888977-.760273-1.34375-1s-.5803415-.279772-.53125-.28125c-.9079133.028192-1.2701287.39703-1.59375 1.03125s-.4375 1.534151-.4375 2.0625c-.0000001 1.82352.3492015 2.752732.78125 3.21875s1.0858537.682797 2.21875.6875c.731562 0 .911788-.155379 1.59375-.4375s1.685143-.584147 3.40625-.5625c.265517-.000986.520444.104055.708195.291805.18775.187751.292791.442678.291805.708195v12h7.78125c-.207834-.680644-.529767-1.246017-1.03125-1.84375-.730943-.871234-1.75-1.973093-1.75-3.65625 0-1.151453.364827-2.183351 1.15625-2.78125s1.76971-.71875 2.84375-.71875c1.635931 0 3.226629.078289 4.5625.59375.667936.257731 1.296243.635074 1.75 1.21875s.6875 1.357962.6875 2.1875c0 1.691533-.61804 3.196562-.84375 5h7.84375v-13.875c-1.092208.132151-1.885183.398726-2.5.75-.804203.459479-1.66793 1.125-3 1.125-1.473775 0-2.919115-.507766-3.9375-1.625s-1.5625-2.757829-1.5625-4.875c0-1.244659.480432-2.432826 1.375-3.25s2.164616-1.25 3.625-1.25c1.561628 0 2.484669.701395 3.25 1.15625.606467.360438 1.426831.628809 2.75.75v-6.90625h-10c-.265517.000986-.520444-.104055-.708195-.291805-.18775-.187751-.292791-.442678-.291805-.708195-.028042-1.914834.897657-3.288795 1.6875-4.3125s1.316705-1.7346304 1.3125-2.1875c-.008009-.4625198-.12191-.6771553-.25-.84375s-.314545-.2957378-.625-.40625c-.620909-.2210243-1.642538-.25-2.625-.25z" fill="none" opacity=".7" stroke="url(#l)"/></g></g></svg>