<?xml version="1.0" encoding="UTF-8" standalone="no"?><!DOCTYPE svg PUBLIC "-//W3C//DTD SVG 1.1//EN" "http://www.w3.org/Graphics/SVG/1.1/DTD/svg11.dtd"><svg width="100%" height="100%" viewBox="0 0 96 96" version="1.1" xmlns="http://www.w3.org/2000/svg" xmlns:xlink="http://www.w3.org/1999/xlink" xml:space="preserve" xmlns:serif="http://www.serif.com/" style="fill-rule:evenodd;clip-rule:evenodd;stroke-linejoin:round;stroke-miterlimit:1.41421;"><rect id="ArtBoard1" x="0" y="0" width="96" height="96" style="fill:none;"/><clipPath id="_clip1"><rect id="ArtBoard11" serif:id="ArtBoard1" x="0" y="0" width="96" height="96"/></clipPath><g clip-path="url(#_clip1)"><g id="surface49030"><rect x="0" y="0" width="96" height="96" style="fill:#3f556b;"/><path id="path4844" d="M17.452,33.305c13.417,3.569 30.096,0.735 37.669,-12.204c1.494,-2.556 2.884,-6.972 -0.209,-8.904c-4.373,-2.732 -11.041,1.278 -14.012,4.311c-4.242,4.331 -5.736,10.819 -6.929,16.558c-1.634,7.848 -2.399,15.862 -3.582,23.789c-1.066,7.119 -2.063,16.09 -8.149,20.85c-2.693,2.105 -10.165,3.578 -11.622,-0.794c-0.288,-0.857 0.267,-1.854 0.686,-2.547c0.346,-0.582 1.719,-1.517 0.562,-0.925c1.36,-0.693 3.965,-0.081 5.416,0.209c6.053,1.214 11.832,3.926 17.64,5.939c17.497,6.06 35.117,6.95 52.94,1.576c1.932,-0.582 6.783,-5.19 2.151,-3.795c-18.111,5.455 -35.682,2.85 -53.113,-3.478c-9.897,-3.592 -19.657,-8.269 -28.881,-0.683c-2.517,2.07 -6.154,7.025 -2.281,9.577c4.21,2.779 10.298,0.814 14.443,-1.043c15.097,-6.762 16.17,-23.262 18.101,-37.617c0.981,-7.272 1.915,-14.65 4.161,-21.663c0.67,-2.09 1.785,-5.394 3.5,-6.773c-1.075,0.863 0.631,0.18 1.86,0.412c0.772,0.15 1.347,0.376 1.831,0.991c2.353,3.006 -1.635,8.056 -3.71,9.929c-5.775,5.21 -15.843,3.775 -22.585,1.981c-2.07,-0.549 -7.103,3.981 -5.887,4.304" style="fill:#fff;fill-rule:nonzero;"/></g></g></svg>