<?xml version="1.0" encoding="UTF-8"?>
<svg fill="none" viewBox="0 0 182 218" xmlns="http://www.w3.org/2000/svg">
<path d="m179.3 2.6896c-1.806-1.8023-3.946-2.6896-6.391-2.6896h-163.83c-2.473 0-4.5847 0.88731-6.3908 2.6896-1.8061 1.8023-2.6953 3.9374-2.6953 6.3775v109c0 8.125 1.5838 16.193 4.7514 24.207 3.1676 7.986 7.1133 15.084 11.809 21.295 4.6958 6.184 10.281 12.229 16.783 18.107s12.504 10.731 17.978 14.613c5.5016 3.882 11.226 7.542 17.2 11.008s10.225 5.795 12.726 7.015c2.5008 1.22 4.5292 2.191 6.0296 2.828 1.1393 0.555 2.3619 0.86 3.6956 0.86s2.5563-0.277 3.6956-0.86c1.5282-0.665 3.5288-1.608 6.0575-2.828 2.501-1.22 6.752-3.577 12.726-7.015 5.974-3.466 11.698-7.126 17.2-11.008 5.501-3.882 11.503-8.762 18.005-14.613 6.502-5.878 12.087-11.896 16.783-18.107s8.614-13.282 11.809-21.295c3.168-7.986 4.751-16.055 4.751-24.207v-108.97c0.028-2.4678-0.889-4.6029-2.695-6.4052zm-21.117 116.4c0 39.458-67.187 73.452-67.187 73.452v-169.2h67.187v95.746z" fill="#175DDC"/>
</svg>
