<?xml version="1.0" encoding="UTF-8" standalone="no"?>
<svg viewBox="0 0 512 512" version="1.1" id="svg4" sodipodi:docname="currency.svg" inkscape:version="1.2.2 (b0a8486541, 2022-12-01)"
    xmlns:inkscape="http://www.inkscape.org/namespaces/inkscape"
    xmlns:sodipodi="http://sodipodi.sourceforge.net/DTD/sodipodi-0.dtd"
    xmlns="http://www.w3.org/2000/svg"
    xmlns:svg="http://www.w3.org/2000/svg">
    <defs id="defs8" />
    <sodipodi:namedview id="namedview6" pagecolor="#ffffff" bordercolor="#666666" borderopacity="1.0" inkscape:showpageshadow="2" inkscape:pageopacity="0.0" inkscape:pagecheckerboard="0" inkscape:deskcolor="#d1d1d1" showgrid="false" inkscape:zoom="1.2871094" inkscape:cx="256" inkscape:cy="363.217" inkscape:window-width="1600" inkscape:window-height="844" inkscape:window-x="0" inkscape:window-y="32" inkscape:window-maximized="1" inkscape:current-layer="svg4" />
    <path d="M512 80c0 18-14.3 34.6-38.4 48c-29.1 16.1-72.5 27.5-122.3 30.9c-3.7-1.8-7.4-3.5-11.3-5C300.6 137.4 248.2 128 192 128c-8.3 0-16.4 .2-24.5 .6l-1.1-.6C142.3 114.6 128 98 128 80c0-44.2 86-80 192-80S512 35.8 512 80zM160.7 161.1c10.2-.7 20.7-1.1 31.3-1.1c62.2 0 117.4 12.3 152.5 31.4C369.3 204.9 384 221.7 384 240c0 4-.7 7.9-2.1 11.7c-4.6 13.2-17 25.3-35 35.5c0 0 0 0 0 0c-.1 .1-.3 .1-.4 .2l0 0 0 0c-.3 .2-.6 .3-.9 .5c-35 19.4-90.8 32-153.6 32c-59.6 0-112.9-11.3-148.2-29.1c-1.9-.9-3.7-1.9-5.5-2.9C14.3 274.6 0 258 0 240c0-34.8 53.4-64.5 128-75.4c10.5-1.5 21.4-2.7 32.7-3.5zM416 240c0-21.9-10.6-39.9-24.1-53.4c28.3-4.4 54.2-11.4 76.2-20.5c16.3-6.8 31.5-15.2 43.9-25.5V176c0 19.3-16.5 37.1-43.8 50.9c-14.6 7.4-32.4 13.7-52.4 18.5c.1-1.8 .2-3.5 .2-5.3zm-32 96c0 18-14.3 34.6-38.4 48c-1.8 1-3.6 1.9-5.5 2.9C304.9 404.7 251.6 416 192 416c-62.8 0-118.6-12.6-153.6-32C14.3 370.6 0 354 0 336V300.6c12.5 10.3 27.6 18.7 43.9 25.5C83.4 342.6 135.8 352 192 352s108.6-9.4 148.1-25.9c7.8-3.2 15.3-6.9 22.4-10.9c6.1-3.4 11.8-7.2 17.2-11.2c1.5-1.1 2.9-2.3 4.3-3.4V304v5.7V336zm32 0V304 278.1c19-4.2 36.5-9.5 52.1-16c16.3-6.8 31.5-15.2 43.9-25.5V272c0 10.5-5 21-14.9 30.9c-16.3 16.3-45 29.7-81.3 38.4c.1-1.7 .2-3.5 .2-5.3zM192 448c56.2 0 108.6-9.4 148.1-25.9c16.3-6.8 31.5-15.2 43.9-25.5V432c0 44.2-86 80-192 80S0 476.2 0 432V396.6c12.5 10.3 27.6 18.7 43.9 25.5C83.4 438.6 135.8 448 192 448z" id="path2" style="fill:#ff3bf8;fill-opacity:1" />
    <path d="m 512,80 c -2.41064,32.26666 -36.22964,48.50074 -62.78281,59.14219 C 417.88203,150.85928 384.57685,156.53627 351.3,158.9 293.87337,131.86166 228.72776,126.9128 166.4,128 143.76391,116.8245 118.0543,90.925217 131.90234,63.872266 153.05564,29.320961 195.59433,17.74003 232.60873,8.7487526 307.40917,-5.6959389 387.66655,-3.9391227 458.96874,24.798113 482.07711,35.392312 510.69093,51.477253 512,80 Z m -351.3,81.1 c 65.37305,-3.43225 134.98819,1.79778 192.61758,35.51367 20.11681,11.30871 39.43808,36.63477 26.49609,59.9832 -20.05724,32.92269 -60.66195,44.35939 -95.722,53.50458 C 208.32831,325.75718 126.7595,324.30765 54.193094,295.63091 29.868471,284.93285 -1.0961677,267.2192 0.15546265,236.75286 6.1221824,203.37859 42.50297,188.43594 70.803473,177.95341 99.799921,168.17693 130.2477,163.30813 160.7,161.1 Z M 416,240 c 2.94224,-10.09227 -0.76022,-23.53896 -6.71501,-33.49181 -6.07037,-10.14601 -14.40295,-16.73963 -12.10723,-20.76354 C 437.71384,178.46702 479.34047,166.80206 512,140.6 c -1.02579,22.64818 5.32597,49.36754 -14.64763,66.09998 C 475.06508,227.85202 445.0194,238.02819 415.8,245.4 l 0.2,-5.3 z m -32,96 c -2.26977,31.85134 -35.5625,48.07658 -61.68067,58.74937 -75.423,26.75731 -159.29142,27.41091 -236.497064,7.90102 C 53.787478,392.72162 14.973292,379.82482 1.47854,345.96548 -1.3889281,331.07749 0.58341019,315.70802 0,300.6 52.756374,340.94519 122.19142,350.16428 186.74266,351.97253 253.10553,351.58651 324.03274,343.1116 379.7,304 c 8.44096,-7.26459 2.55214,15.06948 4.3,21.6297 z m 32,0 v -57.9 c 34.08086,-7.71976 68.49637,-19.22699 96,-41.5 -1.00159,22.76328 5.30566,49.55425 -14.9,66.3 -22.21558,21.05129 -52.19266,31.0727 -81.3,38.4 z M 192,448 c 65.36085,-1.11044 135.44248,-9.92221 189.6426,-49.49094 5.14605,-1.0891 1.04364,17.21207 2.3574,24.15773 3.89338,28.33171 -20.47477,49.30514 -43.85596,60.22779 -67.71993,31.38415 -145.65411,34.10359 -218.52967,23.55853 C 81.151354,498.82481 36.666037,488.32249 8.6352539,455.79595 -4.6920402,438.76749 1.3858618,416.48115 0,396.6 53.762116,437.86369 126.32693,446.84835 192,448 Z" id="path5006" style="fill:#ff3bf8;fill-opacity:1" sodipodi:nodetypes="cccccccccccccccccsccccccccccccccccccccccccccccc" />
</svg>
