<?xml version="1.0" encoding="UTF-8" standalone="no"?>
<svg fill="#ff3bf8" stroke-width="0" viewBox="0 0 640 640" version="1.1" sodipodi:docname="length.svg" width="640px" height="640px" inkscape:version="1.1.1 (3bf5ae0d25, 2021-09-20, custom)" id="svg82"
   xmlns:inkscape="http://www.inkscape.org/namespaces/inkscape"
   xmlns:sodipodi="http://sodipodi.sourceforge.net/DTD/sodipodi-0.dtd"
   xmlns="http://www.w3.org/2000/svg"
   xmlns:svg="http://www.w3.org/2000/svg">
   <defs id="defs64" />
   <sodipodi:namedview id="namedview62" pagecolor="#ffffff" bordercolor="#666666" borderopacity="1.0" inkscape:pageshadow="2" inkscape:pageopacity="0.0" inkscape:pagecheckerboard="0" showgrid="false" inkscape:zoom="0.80240837" inkscape:cx="237.41029" inkscape:cy="264.82775" inkscape:window-width="1600" inkscape:window-height="844" inkscape:window-x="0" inkscape:window-y="32" inkscape:window-maximized="1" inkscape:current-layer="svg82" />
   <path d="m 635.7566,231.17482 -79.6,-135.500002 c -8.8,-15 -28.3,-20.1 -43.5,-11.5 l -69,39.100002 59.7,101.7 c 2.2,3.8 0.9,8.5 -2.9,10.7 l -13.8,7.8 c -3.8,2.2 -8.7,0.9 -10.9,-2.9 l -59.7,-101.6 -55.2,31.3 27.9,47.4 c 2.2,3.8 0.9,8.5 -2.9,10.7 l -13.8,7.8 c -3.8,2.2 -8.7,0.9 -10.9,-2.9 l -27.9,-47.3 -55.2,31.3 59.8,101.7 c 2.2,3.7 0.9,8.5 -2.9,10.7 l -13.8,7.8 c -3.8,2.2 -8.7,0.9 -10.9,-2.9 l -59.7,-101.7 -55.2,31.3 27.9,47.4 c 2.2,3.8 0.9,8.5 -2.9,10.7 l -13.8,7.8 c -3.8,2.2 -8.7,0.9 -10.9,-2.9 l -27.9,-47.5 -55.2,31.3 59.7,101.7 c 2.2,3.7 0.9,8.5 -2.9,10.7 l -13.8,7.8 c -3.8,2.2 -8.7,0.9 -10.9,-2.9 l -59.699995,-101.4 -69,39.1 c -15.20000018,8.7 -20.5000002,27.8 -11.7000002,42.8 l 79.6000002,135.6 c 8.8,15 28.299995,20.1 43.499995,11.5 l 496.8,-281.9 c 15.2,-8.6 20.4,-27.8 11.6,-42.8 z" id="path58" />
</svg>
