<?xml version="1.0" encoding="UTF-8" standalone="no"?>
<svg fill="#ff3bf8" stroke-width="0" viewBox="0 0 512 512" version="1.1" sodipodi:docname="substance.svg" height="512px" width="512px" inkscape:version="1.1.1 (3bf5ae0d25, 2021-09-20, custom)" id="svg97"
   xmlns:inkscape="http://www.inkscape.org/namespaces/inkscape"
   xmlns:sodipodi="http://sodipodi.sourceforge.net/DTD/sodipodi-0.dtd"
   xmlns="http://www.w3.org/2000/svg"
   xmlns:svg="http://www.w3.org/2000/svg">
   <defs id="defs32" />
   <sodipodi:namedview id="namedview30" pagecolor="#ffffff" bordercolor="#666666" borderopacity="1.0" inkscape:pageshadow="2" inkscape:pageopacity="0.0" inkscape:pagecheckerboard="0" showgrid="false" inkscape:zoom="1.21875" inkscape:cx="248.20513" inkscape:cy="255.58974" inkscape:window-width="1600" inkscape:window-height="844" inkscape:window-x="0" inkscape:window-y="32" inkscape:window-maximized="1" inkscape:current-layer="svg97" />
   <path d="m 255.99908,224 a 32,32 0 1 0 32.00782,32 32.06431,32.06431 0 0 0 -32.00782,-32 z m 214.172,-96 C 459.29408,108.5 429.66129,77.25 353.89564,86.125 332.39168,34.875 299.63386,0 255.99908,0 212.3643,0 179.60842,34.875 158.10255,86.125 82.336896,77.375 52.705996,108.5 41.829066,128 c -16.37891,29.375 -15.00391,73.125 25.12893,128 -40.13284,54.875 -41.50784,98.625 -25.12893,128 29.13087,52.375 101.646524,43.625 116.273484,41.875 21.50587,51.25 54.26174,86.125 97.89653,86.125 43.63479,0 76.3926,-34.875 97.89652,-86.125 14.62891,1.75 87.14456,10.5 116.27544,-41.875 C 486.55,354.625 485.175,310.875 445.04017,256 485.175,201.125 486.55,157.375 470.171,128 Z M 95.338856,352 c -4,-7.25 -0.125,-24.75 15.003914,-48.25 6.87695,6.5 14.12891,12.875 21.88087,19.125 1.625,13.75 4,27.125 6.75,40.125 -24.62892,0.875 -39.882834,-4.375 -43.634784,-11 z M 132.22364,189.125 c -7.752,6.25 -15.00392,12.625 -21.88087,19.125 -15.128914,-23.5 -19.003924,-41 -15.003914,-48.25 3.377,-6.125 16.378914,-11.5 37.884784,-11.5 1.75,0 3.875,0.375 5.75,0.375 -2.875,13.375 -5.125,26.75 -6.75,40.25 z M 255.99908,64 c 9.50195,0 22.25586,13.5 33.88282,37.25 -11.252,3.75 -22.50391,8 -33.88282,12.875 C 244.62208,109.25 233.37016,105 222.11625,101.25 233.74516,77.5 246.49712,64 255.99908,64 Z m 0,384 c -9.502,0 -22.25392,-13.5 -33.88283,-37.25 11.25391,-3.75 22.50587,-8 33.88283,-12.875 C 267.378,402.75 278.62994,407 289.8819,410.75 278.25494,434.5 265.501,448 255.99908,448 Z m 0,-112 a 80,80 0 1 1 80,-80 80.00023,80.00023 0 0 1 -80,80 z m 160.66022,16 c -3.625,6.625 -19.00392,11.875 -43.63479,11 2.752,-13 5.127,-26.375 6.752,-40.125 7.75195,-6.25 15.00391,-12.625 21.87891,-19.125 15.12888,23.5 19.00388,41 15.00388,48.25 z M 401.65538,208.25 c -6.875,-6.5 -14.127,-12.875 -21.87891,-19.125 -1.625,-13.5 -3.875,-26.875 -6.752,-40.25 1.875,0 4.002,-0.375 5.752,-0.375 21.50391,0 34.50782,5.375 37.88283,11.5 4,7.25 0.125,24.75 -15.00392,48.25 z" id="path26" />
</svg>
