<?xml version="1.0" encoding="UTF-8" standalone="no"?>
<svg fill="#ff3bf8" stroke-width="0" viewBox="0 0 512 512" version="1.1" sodipodi:docname="temperature.svg" height="512px" width="512px" inkscape:version="1.1.1 (3bf5ae0d25, 2021-09-20, custom)" id="svg102"
   xmlns:inkscape="http://www.inkscape.org/namespaces/inkscape"
   xmlns:sodipodi="http://sodipodi.sourceforge.net/DTD/sodipodi-0.dtd"
   xmlns="http://www.w3.org/2000/svg"
   xmlns:svg="http://www.w3.org/2000/svg">
   <defs id="defs24" />
   <sodipodi:namedview id="namedview22" pagecolor="#ffffff" bordercolor="#666666" borderopacity="1.0" inkscape:pageshadow="2" inkscape:pageopacity="0.0" inkscape:pagecheckerboard="0" showgrid="false" inkscape:zoom="1.21875" inkscape:cx="48.820513" inkscape:cy="255.58974" inkscape:window-width="1600" inkscape:window-height="844" inkscape:window-x="0" inkscape:window-y="32" inkscape:window-maximized="1" inkscape:current-layer="svg102" />
   <path d="m 319.99968,384 c 0,35.346 -28.654,64 -64,64 -35.346,0 -64,-28.654 -64,-64 0,-23.685 12.876,-44.349 32,-55.417 V 224 c 0,-17.673 14.327,-32 32,-32 17.673,0 32,14.327 32,32 v 104.583 c 19.124,11.068 32,31.732 32,55.417 z m 32,-84.653 c 19.912,22.563 32,52.194 32,84.653 0,70.696 -57.303,128 -128,128 -0.299,0 -0.609,-10e-4 -0.909,-0.003 -70.302,-0.488 -127.448,-58.361 -127.089,-128.664 0.164,-32.198 12.223,-61.578 31.998,-83.986 V 96 c 0,-53.019 42.981,-96 96,-96 53.019,0 96,42.981 96,96 z m -16,84.653 c 0,-34.339 -19.37,-52.19 -32,-66.502 V 96 c 0,-26.467 -21.533,-48 -48,-48 -26.467,0 -48,21.533 -48,48 v 221.498 c -12.732,14.428 -31.825,32.1 -31.999,66.08 -0.224,43.876 35.563,80.116 79.423,80.42 l 0.576,0.002 c 44.112,0 80,-35.888 80,-80 z" id="path18" />
</svg>
