<svg version="1.1" id="Layer_1" xmlns="http://www.w3.org/2000/svg" xmlns:xlink="http://www.w3.org/1999/xlink" viewBox="0 0 512 512" xml:space="preserve">
<polygon style="fill:#FFB55F;" points="38.957,0 38.957,512 256,512 278.261,111.304 172.522,0 "/>
<polygon style="fill:#FF8430;" points="256,55.652 256,512 473.043,512 473.043,0 339.478,0 "/>
<polygon style="fill:#FFFFFF;" points="105.739,66.783 105.739,445.217 256,445.217 278.261,256 256,66.783 "/>
<polygon style="fill:#C1E8E6;" points="256,66.783 256,445.217 294.957,445.217 339.478,378.435 406.261,333.913 406.261,66.783 "/>
<polygon style="fill:#FFFFFF;" points="294.957,333.913 294.957,445.217 406.261,333.913 "/>
<polygon style="fill:#185F8D;" points="172.522,0 172.522,100.174 256,100.174 278.261,50.087 256,0 "/>
<rect x="256" style="fill:#082947;" width="83.478" height="100.174"/>
</svg>