<svg enable-background="new 0 0 2000 2000" height="2000" viewBox="0 0 2000 2000" width="2000" xmlns="http://www.w3.org/2000/svg"><path d="m106.115 1696.803c89.192 94.442 579.035 547.109 1347.916 21.76 555.988-432.996 542.096-1371.71 488.682-1655.199-18.598 41.264-664.397 1455.454-1836.598 1633.439zm1836.524-1633.675c-6.809-2.814-722.096-100.325-1429.227 355.119-439.099 282.816-497.144 696.742-477.111 972.566 1027.94-115.038 1883.019-1295.248 1906.338-1327.685z" fill="#97c554"/><path d="m1942.639 63.128c-6.809-2.814-722.096-100.325-1429.227 355.119-439.099 282.816-497.144 696.742-477.111 972.566 1027.94-115.038 1883.019-1295.248 1906.338-1327.685z" fill="#709b30"/></svg>