<?xml version="1.0" encoding="UTF-8" standalone="no"?>
<svg
   height="2048px"
   style="shape-rendering:geometricPrecision; text-rendering:geometricPrecision; image-rendering:optimizeQuality; fill-rule:evenodd; clip-rule:evenodd"
   viewBox="0 0 2048 2048"
   width="2048px"
   xml:space="preserve"
   version="1.1"
   id="svg860"
   sodipodi:docname="duckduckgo.svg"
   inkscape:version="1.1.1 (c3084ef, 2021-09-22)"
   xmlns:inkscape="http://www.inkscape.org/namespaces/inkscape"
   xmlns:sodipodi="http://sodipodi.sourceforge.net/DTD/sodipodi-0.dtd"
   xmlns="http://www.w3.org/2000/svg"
   xmlns:svg="http://www.w3.org/2000/svg"><sodipodi:namedview
     id="namedview862"
     pagecolor="#505050"
     bordercolor="#ffffff"
     borderopacity="1"
     inkscape:pageshadow="0"
     inkscape:pageopacity="0"
     inkscape:pagecheckerboard="1"
     showgrid="false"
     inkscape:zoom="0.19997745"
     inkscape:cx="1117.626"
     inkscape:cy="1212.6367"
     inkscape:window-width="1383"
     inkscape:window-height="847"
     inkscape:window-x="0"
     inkscape:window-y="25"
     inkscape:window-maximized="0"
     inkscape:current-layer="svg860" /><defs
     id="defs826"><style
       type="text/css"
       id="style824">
   <![CDATA[
    .fil9 {fill:none}
    .fil2 {fill:#FEFEFE}
    .fil7 {fill:#2C4F8E}
    .fil6 {fill:#43A144}
    .fil5 {fill:#64BB46}
    .fil1 {fill:#B5B5B5}
    .fil0 {fill:#DA4A26}
    .fil4 {fill:#FFCA28}
    .fil8 {fill:#FFFFFE}
    .fil3 {fill:#212121;fill-rule:nonzero}
   ]]>
  </style></defs><g
     id="Layer_x0020_1"
     transform="matrix(1.21036,0,0,1.21036,-215.40865,-215.40865)"><circle
       class="fil0"
       cx="1024"
       cy="1024"
       r="832.00098"
       id="circle828" /><path
       class="fil1"
       d="m 1087.19,991.642 z m -68.0127,-376.128 c -8.087,-10.1398 -18.0284,-19.9654 -29.889,-29.4083 -13.2921,-10.5815 -29.0008,-20.7591 -47.2241,-30.4429 -35.0693,-18.6236 -74.4827,-31.6099 -115.265,-38.0457 -39.7772,-6.27874 -80.8335,-6.2563 -120.389,0.91654 l 1.3748,31.5626 c 1.80354,0.16417 7.70434,3.9 14.3587,8.32087 -20.6776,5.93977 -39.7677,14.4461 -39.4807,39.6815 l 0.20079,17.4827 17.2996,-1.73268 c 29.3823,-2.94095 60.1678,-2.0504 90.3225,2.61732 9.21024,1.42559 18.3591,3.20197 27.3862,5.32441 l -4.32402,1.15276 c -20.4484,5.58426 -38.9292,12.5209 -54.2493,20.6103 -46.2792,24.3189 -75.5127,60.8493 -90.1406,108.371 -14.1461,45.9555 -14.2748,101.815 -2.72835,166.512 l 0.0626,0.0626 c 15.1453,84.57409 64.1575,316.39199 104.117,505.39399 19.7858,93.5894 37.3866,176.831 47.1414,224.407 3.26575,15.8445 5.03622,31.0264 5.52048,45.5197 0.30354,9.0792 0.0921,17.9599 -0.58111,26.6268 -0.45118,5.8028 -1.10906,11.511 -1.95709,17.1189 l 31.6252,11.6256 338.654,-1.6441 28.6252,-21.0012 c -2.1083,-4.2685 -4.2331,-8.5488 -6.3709,-12.8362 -23.002,-46.1233 -47.4957,-93.0083 -68.6682,-133.534 -15.3921,-29.4626 -29.0091,-55.526 -39.0449,-75.5764 -26.824,-53.6174 -53.6351,-119.469 -68.2808,-182.367 -8.7791,-37.7044 -13.1256,-74.0977 -10.3051,-105.626 -15.3106,-6.2787 -26.6894,-11.8016 -31.96417,-15.5906 l -0.009,0.015 c -14.2193,-10.1988 -31.1114,-28.1185 -41.8217,-49.7174 -8.61615,-17.3764 -13.3973,-37.2461 -10.1445,-57.841 3.17126,-19.8402 27.3343,-46.7138 57.84342,-67.4575 v -0.065 c 26.5536,-18.0532 58.7516,-32.50509 86.3186,-34.31339 7.8354,-0.50906 16.3122,-1.00512 23.9918,-1.45158 33.4488,-1.95 50.2418,-2.93032 84.4737,-11.4213 10.8803,-2.69055 26.1886,-6.5563 43.5284,-11.0835 2.3646,-40.7008 -5.9469,-87.5965 -21.0402,-133.234 -22.0028,-66.5339 -58.6819,-131.254 -97.6265,-170.211 -12.548,-12.5528 -28.1693,-22.7894 -45.9048,-30.9378 -16.878,-7.75394 -35.641,-13.6158 -55.4351,-17.7827 z"
       id="path830" /><path
       class="fil2"
       d="m 1105.19,991.642 z m -68.0127,-376.128 c -8.087,-10.1398 -18.0284,-19.9654 -29.889,-29.4083 -13.2921,-10.5815 -29.0008,-20.7591 -47.2241,-30.4429 -35.0693,-18.6236 -74.4827,-31.6099 -115.265,-38.0457 -39.7772,-6.27874 -80.8335,-6.2563 -120.389,0.91654 l 1.3748,31.5626 c 1.80354,0.16417 7.70434,3.9 14.3587,8.32087 -20.6776,5.93977 -39.7677,14.4461 -39.4807,39.6815 l 0.20079,17.4827 17.2996,-1.73268 c 29.3823,-2.94095 60.1678,-2.0504 90.3225,2.61732 9.21024,1.42559 18.3591,3.20197 27.3862,5.32441 l -4.32402,1.15276 c -20.4484,5.58426 -38.9292,12.5209 -54.2493,20.6103 -46.2792,24.3189 -75.5127,60.8493 -90.1406,108.371 -14.1461,45.9555 -14.2748,101.815 -2.72835,166.512 l 0.0626,0.0626 c 15.1453,84.57409 64.1575,316.39199 104.117,505.39399 19.7858,93.5894 37.3866,176.831 47.1414,224.407 3.26575,15.8445 5.03622,31.0264 5.52048,45.5197 0.30354,9.0792 0.0921,17.9599 -0.58111,26.6268 -0.45118,5.8028 -1.10906,11.511 -1.95709,17.1189 l 31.6252,11.6256 338.654,-1.6441 28.6252,-21.0012 c -2.1083,-4.2685 -4.2331,-8.5488 -6.3709,-12.8362 -23.002,-46.1233 -47.4957,-93.0083 -68.6682,-133.534 -15.3921,-29.4626 -29.0091,-55.526 -39.0449,-75.5764 -26.824,-53.6174 -53.6351,-119.469 -68.2808,-182.367 -8.7791,-37.7044 -13.1256,-74.0977 -10.3051,-105.626 -15.3106,-6.2787 -26.6894,-11.8016 -31.9642,-15.5906 l -0.01,0.015 c -14.21932,-10.1988 -31.11142,-28.1185 -41.82172,-49.7174 -8.61615,-17.3764 -13.3973,-37.2461 -10.1445,-57.841 3.17126,-19.8402 27.3343,-46.7138 57.84342,-67.4575 v -0.065 c 26.5536,-18.0532 58.7516,-32.50509 86.3186,-34.31339 7.8354,-0.50906 16.3122,-1.00512 23.9918,-1.45158 33.4488,-1.95 50.2418,-2.93032 84.4737,-11.4213 10.8803,-2.69055 26.1886,-6.5563 43.5284,-11.0835 2.3646,-40.7008 -5.9469,-87.5965 -21.0402,-133.234 -22.0028,-66.5339 -58.6819,-131.254 -97.6265,-170.211 -12.548,-12.5528 -28.1693,-22.7894 -45.9048,-30.9378 -16.878,-7.75394 -35.641,-13.6158 -55.4351,-17.7827 z"
       id="path832" /><path
       class="fil2"
       d="M 1776,1024 C 1776,823.907 1697.2192,633.752 1555.735,492.266 1414.249,350.782 1224.093,272 1024,272 823.907,272 633.752,350.7843 492.267,492.267 350.784,633.751 272,823.907 272,1024 c 0,200.092 78.7855,390.245 220.269,531.726 141.484,141.482 331.64,220.265 531.732,220.265 200.092,0 390.247,-78.7831 531.732,-220.265 141.483,-141.481 220.269,-331.634 220.269,-531.726 z m -242.894,509.1 C 1397.642,1668.562 1215.578,1743.99 1024,1743.99 832.422,1743.99 650.358,1668.5624 514.894,1533.1 379.431,1397.638 304.001,1215.576 304.001,1024 304.001,832.422 379.4286,650.356 514.893,514.893 650.356,379.429 832.422,304.001 1024,304.001 c 191.58,0 373.646,75.4264 509.11,210.89 135.465,135.464 210.89,317.53 210.89,509.11 0,191.576 -75.43,373.638 -210.893,509.1 z"
       id="path834" /><path
       class="fil3"
       d="m 1438.64,1177.41 c -0,-0.031 -0,-0.017 -0.011,0 z"
       id="path836" /><path
       class="fil3"
       d="m 1499.8,976.878 c 0.031,-0.15591 -0.024,-0.0484 -0.111,0.10748 z"
       id="path838" /><path
       class="fil4"
       d="m 1102.48,986.339 z m 390.074,-64.3465 c -28.917,-11.341 -74.8914,-12.6791 -93.319,-3.77717 -11.5016,5.56654 -35.7437,13.4823 -63.5658,21.7063 -25.741,7.60631 -53.8937,15.2965 -78.1477,21.7028 -17.6882,4.67008 -33.3024,8.65867 -44.4012,11.4343 -34.9181,8.76024 -52.0477,9.77127 -86.1674,11.7827 -7.8331,0.46063 -16.4799,0.97205 -24.4725,1.49764 -28.1197,1.86614 -60.9638,16.77523 -88.0501,35.40003 v 0.067 c -31.1209,21.4004 -55.7682,49.1244 -59.0032,69.593 -3.31772,21.248 1.55906,41.7461 10.3488,59.6729 10.924,22.2827 28.1551,40.7705 42.6603,51.2918 l 0.01,-0.015 c 5.38,3.9083 16.9866,9.6059 32.6044,16.0843 26.0327,10.7976 63.2032,23.765 101.25,34.2331 43.6063,11.9976 89.1178,21.0532 121.689,20.4106 34.2626,-0.6909 77.7331,-10.5165 114.543,-24.6721 22.1469,-8.5169 42.2091,-18.7063 56.8796,-29.5748 17.8477,-13.2189 28.6996,-28.4173 28.3984,-44.7378 -0.068,-3.8846 -0.7145,-7.6299 -1.9689,-11.2087 l -0.021,0.01 c -11.5961,-33.0567 -50.3658,-23.5878 -105.528,-10.1114 -46.8579,11.4461 -107.937,26.3658 -169.011,20.4343 -32.5559,-3.1654 -54.4441,-10.611 -67.8756,-20.1319 -5.9622,-4.2248 -9.9319,-8.6681 -12.1807,-13.1091 -1.9583,-3.8669 -2.674,-7.8425 -2.3303,-11.7154 0.3897,-4.4197 2.1779,-9.0484 5.1012,-13.5721 l -0.044,-0.031 c 7.8614,-12.1169 23.0835,-9.7205 43.9276,-6.4335 25.9099,4.0843 58.2012,9.176 99.0178,-3.6082 39.6296,-12.3756 87.7607,-29.8984 131.186,-47.3882 42.4052,-17.0799 80.0788,-34.0772 100.741,-46.1811 25.461,-14.87134 37.5709,-29.42604 40.5874,-42.86464 2.7259,-12.1536 -0.8894,-22.4823 -8.902,-31.0689 -5.8713,-6.2941 -14.2547,-11.3126 -23.9563,-15.1181 z"
       id="path840" /><g
       id="_337885008"><path
         class="fil5"
         d="m 856.504,1667.76 -17.5973,-239.332 c 11.0504,-22.6973 158.374,47.4024 192.376,58.6111 l 10.7398,124.539 c -31.5142,16.8414 -166.036,112.193 -185.518,56.1815 z"
         id="_337884768" /><path
         class="fil6"
         d="m 1005.87,1507.43 c 0,0 70.7493,-53.1615 130.817,-23.1272 0,0 17.0173,95.1308 0,120.135 0,0 -46.7079,26.5418 -128.471,13.2709 l -2.3457,-110.278 z"
         id="_337884576" /><path
         class="fil5"
         d="m 1013.43,1498.23 c 0,0 70.7493,-53.1615 130.817,-23.1272 0,0 17.0185,95.132 0,120.136 0,0 -46.7067,26.5418 -128.471,13.2709 l -2.3457,-110.28 z"
         id="_337884384" /><path
         class="fil5"
         d="m 1129.86,1494.71 c 51.2079,-31.0134 213.743,-171.369 196.511,-36.3697 l -3.8575,163.065 c 0.3118,6.4665 -2.8157,9.0614 -8.7614,8.4886 l -197.969,-48.3685 14.0776,-86.8158 z"
         id="_337885080" /></g><g
       id="_337884048"><circle
         class="fil7"
         cx="839.41998"
         cy="918.09998"
         id="_337884456"
         r="48.021301" /><circle
         class="fil8"
         cx="861.17902"
         cy="901.84198"
         id="_337884216"
         r="12.2554" /></g><g
       id="_337883784"><circle
         class="fil7"
         cx="1090.04"
         cy="871.849"
         id="_337883664"
         r="41.144901" /><circle
         class="fil8"
         cx="1108.6899"
         cy="857.91901"
         id="_337883880"
         r="10.5005" /></g><path
       class="fil7"
       d="m 788.728,792.154 c 34.2461,-21.5185 69.4548,-5.59016 69.4548,-5.59016 0,0 -23.6126,-31.1516 -72.1087,-11.2984 -48.4311,19.8402 -30.2599,60.3402 -30.2599,60.3402 0,0 -1.27323,-21.9756 32.9138,-43.4516 z"
       id="path853" /><path
       class="fil7"
       d="m 1084.91,760.091 c -51.6166,-8.50867 -58.3914,33.9768 -58.3914,33.9768 0,0 11.0185,-17.811 51.3461,-18.3425 19.6382,-0.26102 44.9433,14.198 44.9433,14.198 0,0 -9.9319,-25.1788 -37.8981,-29.8323 z"
       id="path855" /></g><rect
     class="fil9"
     height="2048"
     width="2048"
     id="rect858" /></svg>
