<svg fill="none" viewBox="-8 -8 176 176" height="105" width="105" xmlns="http://www.w3.org/2000/svg" xmlns:xlink="http://www.w3.org/1999/xlink"><linearGradient id="a" gradientUnits="userSpaceOnUse" x1="118.662" x2="12.607" y1="48.537" y2="48.537"><stop offset="0" stop-color="#21d789"/><stop offset=".917" stop-color="#fcf84a"/></linearGradient><linearGradient id="b" gradientUnits="userSpaceOnUse" x1="122.892" x2="122.892" y1="46.19" y2="178.551"><stop offset="0" stop-color="#21d789"/><stop offset="1" stop-color="#087cfa"/></linearGradient><linearGradient id="c" gradientUnits="userSpaceOnUse" x1="210.443" x2="53.987" y1="166.793" y2="39.294"><stop offset=".105" stop-color="#21d789"/><stop offset=".967" stop-color="#087cfa"/></linearGradient><linearGradient id="d" gradientUnits="userSpaceOnUse" x1="138.334" x2="28.056" y1="-12.316" y2="112.666"><stop offset=".235" stop-color="#21d789"/><stop offset=".74" stop-color="#087cfa"/></linearGradient><linearGradient id="e" gradientUnits="userSpaceOnUse" x1="79.87" x2="79.87" y1="7.553" y2="94.991"><stop offset=".084" stop-color="#878585"/><stop offset=".538"/></linearGradient><clipPath id="f"><path d="m0 0h160v160h-160z"/></clipPath><g clip-path="url(#f)"><path d="m102.833 0 3.167 65-81 32-25-64.667z" fill="url(#a)"/><path d="m160 38-70 30.333 12.833-68.333z" fill="#21d789"/><path d="m85.833 53 74.167-15v70.167l-51 19.167-20.834-19.001z" fill="url(#b)"/><path d="m55 32.5 51.171 7.917 53.829 67.126-51.669 19.957-19.937-19.792z" fill="url(#c)"/><path d="m33 0 73 40.333-25.167 119.667h-42.5l-36.833-38z" fill="url(#d)"/><path d="m128.75 31.25h-97.5v97.5h97.5z" fill="url(#e)"/><path d="m78.375 111.958h-36.292v5.959h36.292zm-35.875-68.208h14.255c11.565 0 19.366 7.8 19.366 18.02 0 10.221-7.8 18.29-19.366 18.29l-14.255.27zm8.069 7.531v21.786h6.186c6.455 0 11.028-4.303 11.028-10.758 0-6.456-4.304-11.028-11.028-11.028h-6.185zm29.431 23.519 4.713-5.687c3.25 2.762 6.825 4.387 10.887 4.387 3.25 0 5.362-1.3 5.362-3.412v-.163c0-2.112-1.3-3.087-7.312-4.712-7.475-1.788-12.188-3.9-12.188-11.213v-.162c0-6.663 5.363-11.05 12.838-11.05 5.362 0 9.912 1.625 13.65 4.712l-4.225 6.013c-3.25-2.275-6.5-3.575-9.587-3.575-3.088 0-4.713 1.462-4.713 3.25v.162c0 2.438 1.625 3.25 7.963 4.875 7.475 1.95 11.699 4.55 11.699 11.05v.163c0 7.312-5.524 11.375-13.487 11.375-5.525-.163-11.212-2.113-15.6-6.013z" fill="#fff"/></g></svg>