<svg xmlns="http://www.w3.org/2000/svg" xmlns:xlink="http://www.w3.org/1999/xlink" version="1.1" x="0px" y="0px" viewBox="0 0 100 100" enable-background="new 0 0 100 100" xml:space="preserve"><ellipse fill="#000000" cx="29.631" cy="37.812" rx="1.875" ry="2.812"></ellipse><ellipse fill="#000000" cx="48.381" cy="37.812" rx="1.875" ry="2.812"></ellipse><path fill="#000000" d="M44.631,43.438c-0.518,0-0.938,0.419-0.938,0.938c0,2.586-2.102,4.688-4.688,4.688s-4.688-2.102-4.688-4.688  c0-0.519-0.419-0.938-0.938-0.938s-0.938,0.419-0.938,0.938c0,3.618,2.944,6.562,6.562,6.562s6.562-2.944,6.562-6.562  C45.569,43.856,45.149,43.438,44.631,43.438z"></path><path fill="#000000" d="M39.006,19.062c-10.856,0-19.688,8.831-19.688,19.688s8.831,19.688,19.688,19.688  s19.688-8.831,19.688-19.688S49.863,19.062,39.006,19.062z M39.006,56.562c-9.822,0-17.812-7.99-17.812-17.812  s7.991-17.812,17.812-17.812s17.812,7.99,17.812,17.812S48.828,56.562,39.006,56.562z"></path><path fill="#000000" d="M66.06,57.848c-1.173-1.174-2.825-1.674-4.431-1.551l-3.731-3.731c2.844-3.88,4.546-8.646,4.546-13.815  c0-12.924-10.514-23.438-23.438-23.438S15.569,25.826,15.569,38.75s10.514,23.438,23.438,23.438c5.169,0,9.935-1.703,13.815-4.547  l3.686,3.687c-0.015,0.166-0.05,0.329-0.05,0.5c0,1.501,0.584,2.913,1.646,3.977L75.34,83.039c1.062,1.062,2.474,1.648,3.977,1.648  s2.915-0.586,3.979-1.648c1.062-1.062,1.648-2.475,1.648-3.977c0-1.503-0.586-2.917-1.648-3.979L66.06,57.848z M17.444,38.75  c0-11.889,9.673-21.562,21.562-21.562s21.562,9.674,21.562,21.562s-9.673,21.562-21.562,21.562S17.444,50.639,17.444,38.75z   M54.301,56.469c0.866-0.748,1.675-1.558,2.424-2.424l2.816,2.816c-0.52,0.254-1.014,0.567-1.436,0.988  c-0.419,0.42-0.742,0.906-1.005,1.419L54.301,56.469z M81.97,81.714c-1.417,1.417-3.887,1.417-5.305,0L59.43,64.479  c-0.707-0.709-1.097-1.65-1.097-2.651c0-1.002,0.39-1.943,1.099-2.651c0.709-0.709,1.65-1.099,2.651-1.099  c1.002,0,1.943,0.39,2.651,1.097L81.97,76.409C83.433,77.872,83.433,80.251,81.97,81.714z"></path><path fill="#000000" d="M39.006,24.688c1.23,0,2.45,0.157,3.622,0.471c0.081,0.021,0.163,0.031,0.242,0.031  c0.416,0,0.794-0.276,0.906-0.696c0.132-0.501-0.165-1.015-0.665-1.147c-1.331-0.354-2.711-0.533-4.105-0.533  c-0.518,0-0.938,0.419-0.938,0.938S38.488,24.688,39.006,24.688z"></path><path fill="#000000" d="M52.957,31.034c-1.404-2.53-3.468-4.635-5.971-6.087c-0.445-0.26-1.022-0.111-1.282,0.341  c-0.26,0.448-0.106,1.021,0.341,1.282c2.21,1.281,4.034,3.138,5.271,5.372c0.172,0.31,0.491,0.483,0.82,0.483  c0.154,0,0.312-0.039,0.454-0.117C53.045,32.058,53.208,31.486,52.957,31.034z"></path></svg>