<?xml version="1.0" encoding="UTF-8" standalone="no"?>
<!-- Created with Inkscape (http://www.inkscape.org/) -->

<svg
   xmlns:dc="http://purl.org/dc/elements/1.1/"
   xmlns:cc="http://creativecommons.org/ns#"
   xmlns:rdf="http://www.w3.org/1999/02/22-rdf-syntax-ns#"
   xmlns:svg="http://www.w3.org/2000/svg"
   xmlns="http://www.w3.org/2000/svg"
   xmlns:sodipodi="http://sodipodi.sourceforge.net/DTD/sodipodi-0.dtd"
   xmlns:inkscape="http://www.inkscape.org/namespaces/inkscape"
   width="84.951103mm"
   height="84.893822mm"
   viewBox="0 0 84.951103 84.893822"
   version="1.1"
   id="svg3907"
   inkscape:version="0.92.2 5c3e80d, 2017-08-06">
  <defs
     id="defs3901" />
  <sodipodi:namedview
     id="base"
     pagecolor="#ffffff"
     bordercolor="#666666"
     borderopacity="1.0"
     inkscape:pageopacity="0.0"
     inkscape:pageshadow="2"
     inkscape:zoom="0.35"
     inkscape:cx="160.53735"
     inkscape:cy="160.42906"
     inkscape:document-units="mm"
     inkscape:current-layer="layer1"
     showgrid="false"
     inkscape:pagecheckerboard="true"
     showborder="true"
     fit-margin-top="0"
     fit-margin-left="0"
     fit-margin-right="0"
     fit-margin-bottom="0"
     inkscape:window-width="2560"
     inkscape:window-height="1381"
     inkscape:window-x="0"
     inkscape:window-y="31"
     inkscape:window-maximized="1" />
  <metadata
     id="metadata3904">
    <rdf:RDF>
      <cc:Work
         rdf:about="">
        <dc:format>image/svg+xml</dc:format>
        <dc:type
           rdf:resource="http://purl.org/dc/dcmitype/StillImage" />
        <dc:title></dc:title>
      </cc:Work>
    </rdf:RDF>
  </metadata>
  <g
     inkscape:label="Layer 1"
     inkscape:groupmode="layer"
     id="layer1"
     transform="translate(-63.357826,-106.38637)">
    <path
       d="m 71.576845,106.43403 h -1.439686 l -0.03316,0.006 c -3.723922,0 -6.743347,3.01943 -6.743347,6.7437 l 7.06e-4,0.0233 -0.0035,0.0346 v 2.19075 l 0.0035,0.16016 0.01305,68.89785 v 0.0381 c 0,3.72322 3.019073,6.74264 6.741584,6.74264 l 0.03881,0.003 h 71.367288 l 0.0392,-0.003 c 3.72357,0 6.74264,-3.01942 6.74264,-6.74264 v -0.0381 l 0.005,-71.24206 v -0.11289 c 0,-3.7218 -3.02014,-6.74052 -6.743,-6.74052 l -0.0243,3.5e-4 -69.964642,0.0392"
       style="fill:#ffffff;fill-opacity:1;fill-rule:nonzero;stroke:none;stroke-width:0.03527778"
       id="path3730"
       inkscape:connector-curvature="0" />
    <path
       d="m 89.645064,159.09987 c 0.07126,0.067 0.02469,0.13053 0.02469,0.13053 0,0 -16.744597,0.17004 -25.933047,6.46641 -0.377472,0.25965 -0.340077,0.20567 -0.340077,0.20567 v -31.08325 c 0,0 6.092119,13.05631 23.443494,10.40024 0.205669,-0.03 0.209197,0.0942 0.209197,0.0942 0,0 -4.492272,7.05556 2.595739,13.78621"
       style="fill:#3b60b5;fill-opacity:1;fill-rule:nonzero;stroke:none;stroke-width:0.03527778"
       id="path3732"
       inkscape:connector-curvature="0" />
    <path
       d="m 74.995262,165.88096 c -5.422547,2.08175 -9.227961,6.96066 -9.227961,12.64815 0,5.45817 3.512256,10.32615 8.592255,12.53772 0,0 0.46355,0.18732 0.528814,0.19014 0.06491,8e-4 27.36215,0 27.36215,0 0,0 0.20849,-0.13335 0.31785,-0.22718 13.02209,-11.52525 2.90372,-20.41949 -8.253939,-27.94494 -0.201083,-0.13618 -0.48119,-0.16616 -0.48119,-0.16616 l -0.03457,-0.008 c -2.317047,-0.27376 -5.77462,-0.13406 -9.579682,0.46919 -3.704519,0.59055 -6.96101,1.49578 -9.084733,2.44617 l -0.138994,0.055"
       style="fill:#ebb10e;fill-opacity:1;fill-rule:nonzero;stroke:none;stroke-width:0.03527778"
       id="path3734"
       inkscape:connector-curvature="0" />
    <path
       d="m 148.30883,113.14175 c 0,-3.72181 -3.02013,-6.74018 -6.74299,-6.74018 l -0.0243,10e-4 h -36.8868 l -0.18979,-0.0162 c 5.0232,4.19065 8.24406,9.86261 8.24406,16.41828 0,4.6736 -1.77236,8.65329 -3.85516,11.77784 l 0.03,-0.0127 c 2.66912,-1.89406 12.10346,-5.16326 21.21183,-3.71581 8.05638,1.28376 14.30937,4.93042 17.93733,8.55486 l 0.27588,0.27058 v -26.42411 -0.11359"
       style="fill:#ea1d27;fill-opacity:1;fill-rule:nonzero;stroke:none;stroke-width:0.03527778"
       id="path3736"
       inkscape:connector-curvature="0" />
    <path
       d="m 148.30389,184.4974 v -44.72129 l 0.005,-0.0967 -0.27587,-0.27058 c -3.62793,-3.62444 -9.88091,-7.2711 -17.9373,-8.55486 -9.10837,-1.44745 -18.5427,1.82175 -21.21182,3.71581 l -0.10865,0.0924 -0.39935,0.41839 c 0,0 -1.49648,1.61044 -3.1309,3.17536 -1.63266,1.56492 -4.01003,3.50026 -4.01003,3.50026 -2.048579,1.53987 -3.295296,3.57752 -3.295296,5.81272 0,2.24296 1.43369,4.39349 3.494976,5.93443 0,0 3.42194,2.5019 5.71711,4.42383 2.29376,1.92229 5.00415,4.55612 5.00415,4.55612 3.10692,2.921 5.11387,7.54804 5.11387,12.75468 0,4.48451 -1.48625,8.53511 -3.88267,11.43953 l -3.67206,4.60269 h 31.80714 l 0.0392,-0.003 c 3.72357,0 6.74264,-3.01942 6.74264,-6.74334 v -0.0367"
       style="fill:#27833b;fill-opacity:1;fill-rule:nonzero;stroke:none;stroke-width:0.03527778"
       id="path3738"
       inkscape:connector-curvature="0" />
    <path
       d="m 78.881462,106.46331 c -6.670322,3.47486 -7.689144,12.03995 -5.499453,19.98169 2.894189,10.49655 10.535355,17.82409 18.29329,15.40439 10.821461,-3.37573 10.705751,-12.10486 7.8105,-22.60177 -1.503185,-5.45782 -5.429953,-10.58862 -9.310158,-12.78819 l -0.02893,-0.0198 H 78.93332 l -0.05186,0.0236"
       style="fill:#3b60b5;fill-opacity:1;fill-rule:nonzero;stroke:none;stroke-width:0.03527778"
       id="path3740"
       inkscape:connector-curvature="0" />
    <path
       d="m 63.357829,113.24793 v 2.19216 l 0.0035,0.1584 c 2.017183,-4.0573 4.951236,-7.2644 8.215488,-9.15882 h -0.07197 -1.36772 l -0.03316,0.008 c -3.723922,0 -6.743347,3.01871 -6.743347,6.74264 l 7.06e-4,0.0243 -0.0035,0.0335"
       style="fill:#3b60b5;fill-opacity:1;fill-rule:nonzero;stroke:none;stroke-width:0.03527778"
       id="path3742"
       inkscape:connector-curvature="0" />
  </g>
</svg>
