<svg xmlns="http://www.w3.org/2000/svg" viewBox="0 0 512 512">
   <path fill="#099" d="M16.924 109.251l83.863 12.077L187.534 9.054c3.765-4.857-1.557-11.344-6.779-8.249L15.231 98.874c-4.52 2.674-3.377 9.649 1.693 10.377zm220.774 61.916l39.368 26.213c4.357 2.703 32.936-30.956 32.936-30.956L253.914 27.427c-2.007-5.719-10.251-4.178-10.504 1.965zM222.343 15.299c.217-5.377-6.31-7.753-9.6-3.494l-93.938 121.578 36.337 51.614 61.015-16.188zm43.043 199.184l-40.721-24.97-66.09 17.543-39.059 107.313c-1.651 4.537 2.574 8.83 6.929 7.037L233.94 251.88zM6.32 130.425c-4.432-.638-7.788 4.287-5.669 8.321l88.794 169.187c2.192 4.169 8.18 3.6 9.832-.937l39.057-107.307-39.352-55.92zm187.42 218.507l82.936-17.334 43.115-135.173c1.877-5.852-5.343-10.127-9.192-5.432L188.601 339.759c-3.333 4.058.127 10.222 5.14 9.173zm228.636-17.328l82.936 17.334c5.019 1.05 8.473-5.121 5.146-9.179L388.453 190.986c-3.842-4.688-11.062-.42-9.198 5.439zm-67.739-141.216c-1.635-5.127-8.581-5.127-10.216 0l-46.69 146.375 51.798 36.074 51.798-36.08zm153.404 182.067l-91.638-19.153-56.105 39.089v114.2c0 4.828 5.439 7.417 8.918 4.243l141.299-128.621c3.378-3.066 1.908-8.842-2.474-9.758zm-317.023 0c-4.383.916-5.852 6.692-2.481 9.758l141.305 128.615c3.486 3.168 8.918.585 8.918-4.243V392.391l-56.105-39.089z"/>
</svg>