<svg xmlns="http://www.w3.org/2000/svg" width="512" height="512">
   <path fill="#099" d="M122.75 215.057L17.2 370.945c-3.08 5 .1 11.5 5.93 12.14l208.26 22.07zM23.41 315.426L98.7 193.078l-76.64-45.979c-2.67-1.6-6.06.32-6.06 3.43v162.808c0 4.03 5.29 5.53 7.41 2.09zm10.84 108.169l194.4 87.659c5.3 2.45 11.35-1.43 11.35-7.26v-65.669l-203.55-22.3c-4.45-.5-6.23 5.59-2.2 7.57zm81.22-257.777L195.4 22.88c4.34-7.06-3.59-15.25-10.78-11.14L33.81 110.349c-2.47 1.62-2.39 5.26.13 6.78zM256 175.998h109.21L269.63 7.62C266.5 2.54 261.25 0 256 0s-10.5 2.54-13.63 7.62l-95.58 168.378zm233.94-28.9l-76.64 45.989 75.29 122.348c2.11 3.44 7.41 1.94 7.41-2.1V150.528c0-3.11-3.39-5.03-6.06-3.43zm-93.41 18.72l81.53-48.699c2.53-1.52 2.6-5.16.13-6.78L327.38 11.74c-7.19-4.11-15.12 4.08-10.78 11.14zm79.02 250.207L272 438.314v65.669c0 5.84 6.05 9.71 11.35 7.26l194.4-87.659c4.03-1.97 2.25-8.06-2.2-7.56zm-86.3-200.967L280.62 405.155l208.26-22.07c5.83-.65 9.01-7.14 5.93-12.14zM256 207.997H155.57L256 383.745l100.43-175.748z"/>
</svg>