<svg xmlns="http://www.w3.org/2000/svg" height="512" width="512">
   <path fill="#099" d="M454.184 109.953L288.206 9.075c-19.91-12.1-44.519-12.1-64.429 0L57.81 109.953c-5.32 3.23-5.29 11.27.06 14.46l198.127 118.138 198.137-118.138c5.35-3.19 5.38-11.22.05-14.46zm13.84 44.629L271.997 271.461v223.817c0 12.88 13.39 20.91 24.05 14.43l152.158-92.479c19.68-11.96 31.79-33.94 31.79-57.699V161.833c0-6.41-6.64-10.43-11.97-7.25zM32 161.833V359.53c0 23.77 12.11 45.739 31.79 57.699l152.158 92.469c10.67 6.48 24.05-1.54 24.05-14.43V271.461L43.97 154.583c-5.33-3.18-11.97.84-11.97 7.25z"/>
</svg>