<svg xmlns="http://www.w3.org/2000/svg" height="512" width="512">
   <path fill="#099" d="M473.6 204.6h-94.992c10.152 23.672 5.696 52.16-13.6 71.456L256 385.064V422.2c0 21.208 17.192 38.4 38.4 38.4h179.2c21.208 0 38.4-17.192 38.4-38.4V243c0-21.208-17.192-38.4-38.4-38.4zM384 351.8c-10.6 0-19.2-8.6-19.2-19.2 0-10.608 8.6-19.2 19.2-19.2s19.2 8.592 19.2 19.2c0 10.6-8.6 19.2-19.2 19.2zm-37.096-149.36L206.96 62.496c-15.328-15.328-40.184-15.328-55.512 0L11.496 202.44c-15.328 15.328-15.328 40.184 0 55.512L151.44 397.904c15.328 15.328 40.184 15.328 55.512 0L346.904 257.96c15.328-15.336 15.328-40.192 0-55.52zM76.8 249.4c-10.6 0-19.2-8.6-19.2-19.2 0-10.608 8.6-19.2 19.2-19.2S96 219.592 96 230.2c0 10.6-8.6 19.2-19.2 19.2zm102.4 102.4c-10.6 0-19.2-8.6-19.2-19.2 0-10.608 8.6-19.2 19.2-19.2s19.2 8.592 19.2 19.2c0 10.6-8.6 19.2-19.2 19.2zm0-102.4c-10.6 0-19.2-8.6-19.2-19.2 0-10.608 8.6-19.2 19.2-19.2s19.2 8.592 19.2 19.2c0 10.6-8.6 19.2-19.2 19.2zm0-102.4c-10.6 0-19.2-8.6-19.2-19.2 0-10.608 8.6-19.2 19.2-19.2s19.2 8.592 19.2 19.2c0 10.6-8.6 19.2-19.2 19.2zm102.4 102.4c-10.6 0-19.2-8.6-19.2-19.2 0-10.608 8.6-19.2 19.2-19.2s19.2 8.592 19.2 19.2c0 10.6-8.6 19.2-19.2 19.2z"/>
</svg>