<svg xmlns="http://www.w3.org/2000/svg" viewBox="0 0 1024 1024"><g stroke-width=".876"><path fill="#fff" d="M506.38 13.999c-69.392.521-138.75 15.406-201.91 44.238-64.846 29.467-123.24 73.072-169.8 126.99-44.1 50.965-77.785 110.97-97.861 175.33-12.414 39.538-19.807 80.64-22.059 122.02-3.372 62.328 4.974 125.29 24.77 184.5a494 494 0 0 0 50.242 106.13c24.971 39.75 55.593 75.953 90.726 107.09 49.096 43.59 106.9 77.402 169.1 98.452 49.411 16.815 101.5 25.706 153.68 26.342 65.394.813 130.99-11.204 191.64-35.726 65.68-26.446 125.58-67.167 174.25-118.6 40.916-43.112 74.055-93.606 97.11-148.4a492.8 492.8 0 0 0 35.235-132.86c5.354-44.301 4.735-89.318-1.802-133.46-6.978-47.102-20.807-93.187-40.99-136.32-26.962-57.703-65.15-110.14-111.86-153.44-45.699-42.437-99.429-76.243-157.61-98.743-43.597-16.931-89.613-27.631-136.21-31.635-15.51-1.35-31.084-1.972-46.653-1.917z"/><path fill="#1b1f23" fill-rule="evenodd" d="M957.88 509.57c0 197.82-128.33 365.93-305.41 425.33-22.415 4.483-30.821-9.527-30.821-21.295 0-15.13.56-63.324.56-123.28 0-42.029-14.01-68.927-30.26-82.937 99.748-11.208 204.54-49.314 204.54-221.35 0-49.314-17.373-89.101-45.953-120.48 4.483-11.208 20.174-57.159-4.483-118.8 0 0-37.546-12.328-123.28 45.952-35.865-10.087-73.97-15.13-112.08-15.13-38.106 0-76.212 5.044-112.08 15.13-85.739-57.72-123.28-45.952-123.28-45.952-24.657 61.642-8.966 107.59-4.483 118.8-28.58 31.382-45.952 71.729-45.952 120.48 0 171.48 104.23 210.14 203.98 221.35-12.889 11.208-24.657 30.821-28.58 59.961-25.778 11.768-90.222 30.821-130.57-36.985-8.406-13.449-33.623-46.512-68.927-45.952-37.546.56-15.13 21.295.56 29.7 19.054 10.647 40.909 50.435 45.953 63.324 8.966 25.217 38.106 73.411 150.74 52.676 0 37.546.56 72.85.56 83.498 0 11.768-8.406 25.217-30.821 21.295-178.2-59.401-306.53-226.96-306.53-425.33 0-247.69 200.62-448.31 448.31-448.31s448.31 200.62 448.31 448.31z"/></g></svg>