<?xml version="1.0" encoding="UTF-8" standalone="no"?>
<!--
  - Copyright (c) 2022 Manuel Schneider
  -->

<svg
   xmlns:ns3="http://www.iki.fi/pav/software/textext/"
   xmlns:dc="http://purl.org/dc/elements/1.1/"
   xmlns:cc="http://creativecommons.org/ns#"
   xmlns:rdf="http://www.w3.org/1999/02/22-rdf-syntax-ns#"
   xmlns:svg="http://www.w3.org/2000/svg"
   xmlns="http://www.w3.org/2000/svg"
   xmlns:sodipodi="http://sodipodi.sourceforge.net/DTD/sodipodi-0.dtd"
   xmlns:inkscape="http://www.inkscape.org/namespaces/inkscape"
   width="67.30188mm"
   height="67.353134mm"
   viewBox="0 0 67.30188 67.353135"
   version="1.1"
   id="svg8"
   sodipodi:docname="texdoc-logo.svg"
   inkscape:version="1.0.1 (3bc2e813f5, 2020-09-07)">
  <defs
     id="defs2" />
  <sodipodi:namedview
     id="base"
     pagecolor="#ffffff"
     bordercolor="#666666"
     borderopacity="1.0"
     inkscape:pageopacity="0.0"
     inkscape:pageshadow="2"
     inkscape:zoom="1.719483"
     inkscape:cx="-148.35809"
     inkscape:cy="179.97916"
     inkscape:document-units="mm"
     inkscape:current-layer="layer1"
     inkscape:document-rotation="0"
     showgrid="true"
     inkscape:window-width="1882"
     inkscape:window-height="1023"
     inkscape:window-x="0"
     inkscape:window-y="0"
     inkscape:window-maximized="1"
     showguides="true"
     inkscape:guide-bbox="true"
     fit-margin-top="0"
     fit-margin-left="0"
     fit-margin-right="0"
     fit-margin-bottom="0">
    <inkscape:grid
       type="xygrid"
       id="grid131"
       originx="-139.43136"
       originy="-226.14897" />
    <sodipodi:guide
       position="-148.69177,178.40837"
       orientation="1,0"
       id="guide133" />
  </sodipodi:namedview>
  <metadata
     id="metadata5">
    <rdf:RDF>
      <cc:Work
         rdf:about="">
        <dc:format>image/svg+xml</dc:format>
        <dc:type
           rdf:resource="http://purl.org/dc/dcmitype/StillImage" />
        <dc:title></dc:title>
      </cc:Work>
    </rdf:RDF>
  </metadata>
  <g
     inkscape:label="Layer 1"
     inkscape:groupmode="layer"
     id="layer1"
     transform="translate(-139.43136,-226.14897)">
    <g
       transform="matrix(3.0310528,0,0,3.0310528,145.50182,233.11494)"
       ns3:version="1.3.0"
       ns3:texconverter="pdflatex"
       ns3:pdfconverter="inkscape"
       ns3:text="\\TeX"
       ns3:preamble="/home/cit/.config/inkscape/extensions/textext/default_packages.tex"
       ns3:scale="1.0"
       ns3:alignment="middle center"
       ns3:jacobian_sqrt="0.352778"
       id="g36"
       style="fill:#ffffff">
      <defs
         id="id-77a0acd2-7a06-4346-829f-629222d18ce3">
        <g
           id="id-c94212fe-782f-41df-adcd-51f518b77a51">
          <symbol
             overflow="visible"
             id="id-ec6bdff8-2dff-4d98-946a-fb02833da958">
            <path
               style="stroke:none;stroke-width:0"
               d=""
               id="id-0fd6c340-5bda-4958-bc78-86b3e0862300" />
          </symbol>
          <symbol
             overflow="visible"
             id="id-85c9f711-e45c-421d-9a20-266e7bad1007">
            <path
               style="stroke:none;stroke-width:0"
               d="m 6.640625,-6.75 h -6.09375 l -0.1875,2.25 h 0.25 C 0.75,-6.109375 0.890625,-6.4375 2.40625,-6.4375 c 0.171875,0 0.4375,0 0.53125,0.015625 0.21875,0.046875 0.21875,0.15625 0.21875,0.375 v 5.265625 c 0,0.328125 0,0.46875 -1.046875,0.46875 H 1.703125 V 0 C 2.109375,-0.03125 3.125,-0.03125 3.59375,-0.03125 c 0.453125,0 1.484375,0 1.890625,0.03125 v -0.3125 h -0.40625 c -1.046875,0 -1.046875,-0.140625 -1.046875,-0.46875 v -5.265625 c 0,-0.1875 0,-0.328125 0.1875,-0.375 0.109375,-0.015625 0.375,-0.015625 0.5625,-0.015625 1.515625,0 1.65625,0.328125 1.796875,1.9375 h 0.25 z m 0,0"
               id="id-9d5314b4-6992-4864-bc82-c2e8753f7194" />
          </symbol>
          <symbol
             overflow="visible"
             id="id-0bd24e45-b47d-46e8-bd8f-2c31cbba439d">
            <path
               style="stroke:none;stroke-width:0"
               d="m 1.359375,-0.78125 c 0,0.359375 -0.03125,0.46875 -0.796875,0.46875 H 0.328125 V 0 h 5.75 L 6.5,-2.578125 H 6.25 C 6,-1.03125 5.765625,-0.3125 4.0625,-0.3125 H 2.734375 C 2.265625,-0.3125 2.25,-0.375 2.25,-0.703125 V -3.375 h 0.890625 c 0.96875,0 1.078125,0.328125 1.078125,1.171875 h 0.25 V -4.84375 h -0.25 c 0,0.859375 -0.109375,1.171875 -1.078125,1.171875 H 2.25 v -2.40625 c 0,-0.328125 0.015625,-0.390625 0.484375,-0.390625 h 1.28125 c 1.53125,0 1.796875,0.546875 1.953125,1.9375 h 0.25 l -0.28125,-2.25 H 0.328125 v 0.3125 H 0.5625 c 0.765625,0 0.796875,0.109375 0.796875,0.46875 z m 0,0"
               id="id-de853d14-4d4c-441c-8255-190584c57b34" />
          </symbol>
          <symbol
             overflow="visible"
             id="id-09714f4c-f478-40cd-9d04-79a2b903efa3">
            <path
               style="stroke:none;stroke-width:0"
               d="m 4,-3.84375 1.375,-2.015625 c 0.21875,-0.3125 0.5625,-0.625 1.4375,-0.640625 v -0.3125 c -0.375,0.015625 -0.84375,0.03125 -1.09375,0.03125 -0.40625,0 -0.890625,0 -1.28125,-0.03125 V -6.5 c 0.390625,0.015625 0.609375,0.234375 0.609375,0.453125 0,0.109375 -0.015625,0.125 -0.078125,0.234375 L 3.828125,-4.125 2.546875,-6.046875 C 2.515625,-6.078125 2.46875,-6.15625 2.46875,-6.203125 2.46875,-6.3125 2.6875,-6.484375 3.125,-6.5 v -0.3125 c -0.359375,0.03125 -1.078125,0.03125 -1.453125,0.03125 -0.3125,0 -0.9375,0 -1.296875,-0.03125 V -6.5 h 0.1875 c 0.546875,0 0.734375,0.0625 0.921875,0.34375 L 3.3125,-3.375 1.6875,-0.96875 C 1.546875,-0.765625 1.25,-0.3125 0.234375,-0.3125 V 0 c 0.359375,-0.015625 0.78125,-0.03125 1.109375,-0.03125 0.375,0 0.921875,0 1.28125,0.03125 V -0.3125 C 2.15625,-0.3125 2,-0.59375 2,-0.765625 2,-0.859375 2.03125,-0.890625 2.09375,-1 l 1.421875,-2.09375 1.5625,2.375 c 0.03125,0.046875 0.0625,0.078125 0.0625,0.109375 0,0.125 -0.21875,0.296875 -0.65625,0.296875 V 0 C 4.828125,-0.03125 5.5625,-0.03125 5.9375,-0.03125 c 0.421875,0 0.875,0.015625 1.296875,0.03125 v -0.3125 h -0.1875 c -0.515625,0 -0.734375,-0.046875 -0.9375,-0.359375 z m 0,0"
               id="id-265485c2-9c84-4c1d-b5fa-ddbcab779742" />
          </symbol>
        </g>
      </defs>
      <g
         id="id-ecf4e2ed-c72f-4be4-b09c-38ec7bc27f3b"
         transform="translate(-149.071,-127.953)"
         style="fill:#ffffff">
        <g
           style="fill:#ffffff;fill-opacity:1"
           id="id-687983a8-c9fa-4b53-a3f6-a59b5cc4d93a">
          <g
             transform="translate(148.712,134.765)"
             id="g24"
             style="fill:#ffffff">
            <path
               style="fill:#ffffff;stroke:none;stroke-width:0"
               d="m 6.640625,-6.75 h -6.09375 l -0.1875,2.25 h 0.25 C 0.75,-6.109375 0.890625,-6.4375 2.40625,-6.4375 c 0.171875,0 0.4375,0 0.53125,0.015625 0.21875,0.046875 0.21875,0.15625 0.21875,0.375 v 5.265625 c 0,0.328125 0,0.46875 -1.046875,0.46875 H 1.703125 V 0 C 2.109375,-0.03125 3.125,-0.03125 3.59375,-0.03125 c 0.453125,0 1.484375,0 1.890625,0.03125 v -0.3125 h -0.40625 c -1.046875,0 -1.046875,-0.140625 -1.046875,-0.46875 v -5.265625 c 0,-0.1875 0,-0.328125 0.1875,-0.375 0.109375,-0.015625 0.375,-0.015625 0.5625,-0.015625 1.515625,0 1.65625,0.328125 1.796875,1.9375 h 0.25 z m 0,0"
               id="id-8bf472d1-efd4-4d08-9b9b-74ac6d079e89" />
          </g>
        </g>
        <g
           style="fill:#ffffff;fill-opacity:1"
           id="id-05f5fbfb-6e58-4ce4-9942-fa093a2d921b">
          <g
             transform="translate(154.247,136.909)"
             id="g28"
             style="fill:#ffffff">
            <path
               style="fill:#ffffff;stroke:none;stroke-width:0"
               d="m 1.359375,-0.78125 c 0,0.359375 -0.03125,0.46875 -0.796875,0.46875 H 0.328125 V 0 h 5.75 L 6.5,-2.578125 H 6.25 C 6,-1.03125 5.765625,-0.3125 4.0625,-0.3125 H 2.734375 C 2.265625,-0.3125 2.25,-0.375 2.25,-0.703125 V -3.375 h 0.890625 c 0.96875,0 1.078125,0.328125 1.078125,1.171875 h 0.25 V -4.84375 h -0.25 c 0,0.859375 -0.109375,1.171875 -1.078125,1.171875 H 2.25 v -2.40625 c 0,-0.328125 0.015625,-0.390625 0.484375,-0.390625 h 1.28125 c 1.53125,0 1.796875,0.546875 1.953125,1.9375 h 0.25 l -0.28125,-2.25 H 0.328125 v 0.3125 H 0.5625 c 0.765625,0 0.796875,0.109375 0.796875,0.46875 z m 0,0"
               id="id-b8f8afb6-387d-4985-8ae5-a25da009e708" />
          </g>
        </g>
        <g
           style="fill:#ffffff;fill-opacity:1"
           id="id-91152319-3c98-434c-8ca6-607cff03e8b8">
          <g
             transform="translate(159.782,134.765)"
             id="g32"
             style="fill:#ffffff">
            <path
               style="fill:#ffffff;stroke:none;stroke-width:0"
               d="m 4,-3.84375 1.375,-2.015625 c 0.21875,-0.3125 0.5625,-0.625 1.4375,-0.640625 v -0.3125 c -0.375,0.015625 -0.84375,0.03125 -1.09375,0.03125 -0.40625,0 -0.890625,0 -1.28125,-0.03125 V -6.5 c 0.390625,0.015625 0.609375,0.234375 0.609375,0.453125 0,0.109375 -0.015625,0.125 -0.078125,0.234375 L 3.828125,-4.125 2.546875,-6.046875 C 2.515625,-6.078125 2.46875,-6.15625 2.46875,-6.203125 2.46875,-6.3125 2.6875,-6.484375 3.125,-6.5 v -0.3125 c -0.359375,0.03125 -1.078125,0.03125 -1.453125,0.03125 -0.3125,0 -0.9375,0 -1.296875,-0.03125 V -6.5 h 0.1875 c 0.546875,0 0.734375,0.0625 0.921875,0.34375 L 3.3125,-3.375 1.6875,-0.96875 C 1.546875,-0.765625 1.25,-0.3125 0.234375,-0.3125 V 0 c 0.359375,-0.015625 0.78125,-0.03125 1.109375,-0.03125 0.375,0 0.921875,0 1.28125,0.03125 V -0.3125 C 2.15625,-0.3125 2,-0.59375 2,-0.765625 2,-0.859375 2.03125,-0.890625 2.09375,-1 l 1.421875,-2.09375 1.5625,2.375 c 0.03125,0.046875 0.0625,0.078125 0.0625,0.109375 0,0.125 -0.21875,0.296875 -0.65625,0.296875 V 0 C 4.828125,-0.03125 5.5625,-0.03125 5.9375,-0.03125 c 0.421875,0 0.875,0.015625 1.296875,0.03125 v -0.3125 h -0.1875 c -0.515625,0 -0.734375,-0.046875 -0.9375,-0.359375 z m 0,0"
               id="id-cd94035f-eb1a-42bb-841d-41522e7274e7" />
          </g>
        </g>
      </g>
    </g>
    <g
       transform="matrix(3.5339415,0,0,3.5339415,146.72016,262.69862)"
       ns3:version="1.3.0"
       ns3:texconverter="pdflatex"
       ns3:pdfconverter="inkscape"
       ns3:text="doc"
       ns3:preamble="/home/cit/.config/inkscape/extensions/textext/default_packages.tex"
       ns3:scale="1.0"
       ns3:alignment="middle center"
       ns3:jacobian_sqrt="0.352778"
       id="g107"
       style="fill:#ffffff">
      <defs
         id="id-23ec7a65-65ab-496a-9829-39b874d99967">
        <g
           id="id-5d2857b7-c628-4263-b39d-7afa15594172">
          <symbol
             overflow="visible"
             id="id-34906862-5020-4895-a451-aa0c7a4657a9">
            <path
               style="stroke:none;stroke-width:0"
               d=""
               id="id-622aa8a1-a7ee-4860-b5f6-ca68a09ef20b" />
          </symbol>
          <symbol
             overflow="visible"
             id="id-e20fa02e-74a8-4dea-bc0a-b87e75a311dc">
            <path
               style="stroke:none;stroke-width:0"
               d="m 3.78125,-0.546875 v 0.65625 L 5.25,0 v -0.3125 c -0.6875,0 -0.78125,-0.0625 -0.78125,-0.5625 V -6.921875 L 3.046875,-6.8125 V -6.5 c 0.6875,0 0.765625,0.0625 0.765625,0.5625 v 2.15625 c -0.28125,-0.359375 -0.71875,-0.625 -1.25,-0.625 -1.171875,0 -2.21875,0.984375 -2.21875,2.265625 0,1.265625 0.96875,2.25 2.109375,2.25 0.640625,0 1.078125,-0.34375 1.328125,-0.65625 z m 0,-2.671875 v 2.046875 c 0,0.171875 0,0.1875 -0.109375,0.359375 C 3.375,-0.328125 2.9375,-0.109375 2.5,-0.109375 2.046875,-0.109375 1.6875,-0.375 1.453125,-0.75 1.203125,-1.15625 1.171875,-1.71875 1.171875,-2.140625 1.171875,-2.5 1.1875,-3.09375 1.46875,-3.546875 1.6875,-3.859375 2.0625,-4.1875 2.609375,-4.1875 c 0.34375,0 0.765625,0.15625 1.0625,0.59375 0.109375,0.171875 0.109375,0.1875 0.109375,0.375 z m 0,0"
               id="id-f1a1350c-d7cc-413f-9726-ff4b77c577fd" />
          </symbol>
          <symbol
             overflow="visible"
             id="id-65064114-e22d-4363-9c33-4b9df9b3b9bd">
            <path
               style="stroke:none;stroke-width:0"
               d="M 4.6875,-2.140625 C 4.6875,-3.40625 3.703125,-4.46875 2.5,-4.46875 c -1.25,0 -2.21875,1.09375 -2.21875,2.328125 0,1.296875 1.03125,2.25 2.203125,2.25 1.203125,0 2.203125,-0.984375 2.203125,-2.25 z m -2.1875,2 c -0.4375,0 -0.875,-0.203125 -1.140625,-0.671875 -0.25,-0.4375 -0.25,-1.046875 -0.25,-1.40625 0,-0.390625 0,-0.921875 0.234375,-1.359375 C 1.609375,-4.03125 2.078125,-4.25 2.484375,-4.25 c 0.4375,0 0.859375,0.21875 1.125,0.65625 0.265625,0.421875 0.265625,1 0.265625,1.375 0,0.359375 0,0.90625 -0.21875,1.34375 C 3.421875,-0.421875 2.984375,-0.140625 2.5,-0.140625 Z m 0,0"
               id="id-98f252f6-03b0-4594-a5d3-2f4e23bae028" />
          </symbol>
          <symbol
             overflow="visible"
             id="id-88646c63-900f-4667-829c-1ef064104f18">
            <path
               style="stroke:none;stroke-width:0"
               d="m 1.171875,-2.171875 c 0,-1.625 0.8125,-2.046875 1.34375,-2.046875 0.09375,0 0.71875,0.015625 1.0625,0.375 -0.40625,0.03125 -0.46875,0.328125 -0.46875,0.453125 0,0.265625 0.1875,0.453125 0.453125,0.453125 0.265625,0 0.46875,-0.15625 0.46875,-0.46875 0,-0.671875 -0.765625,-1.0625 -1.53125,-1.0625 -1.25,0 -2.15625,1.078125 -2.15625,2.3125 0,1.28125 0.984375,2.265625 2.140625,2.265625 1.328125,0 1.65625,-1.203125 1.65625,-1.296875 0,-0.09375 -0.109375,-0.09375 -0.140625,-0.09375 -0.078125,0 -0.109375,0.03125 -0.125,0.09375 -0.28125,0.921875 -0.9375,1.046875 -1.296875,1.046875 -0.53125,0 -1.40625,-0.421875 -1.40625,-2.03125 z m 0,0"
               id="id-b559d192-586a-4b80-931b-86b46df11295" />
          </symbol>
        </g>
      </defs>
      <g
         id="id-c330220f-9fe6-4119-92b0-f4a01f654962"
         transform="translate(-149.056,-127.843)"
         style="fill:#ffffff">
        <g
           style="fill:#ffffff;fill-opacity:1"
           id="id-ba62dacf-d733-4c96-879c-b42c155cd180">
          <g
             transform="translate(148.712,134.765)"
             id="g96"
             style="fill:#ffffff">
            <path
               style="fill:#ffffff;stroke:none;stroke-width:0"
               d="m 3.78125,-0.546875 v 0.65625 L 5.25,0 v -0.3125 c -0.6875,0 -0.78125,-0.0625 -0.78125,-0.5625 V -6.921875 L 3.046875,-6.8125 V -6.5 c 0.6875,0 0.765625,0.0625 0.765625,0.5625 v 2.15625 c -0.28125,-0.359375 -0.71875,-0.625 -1.25,-0.625 -1.171875,0 -2.21875,0.984375 -2.21875,2.265625 0,1.265625 0.96875,2.25 2.109375,2.25 0.640625,0 1.078125,-0.34375 1.328125,-0.65625 z m 0,-2.671875 v 2.046875 c 0,0.171875 0,0.1875 -0.109375,0.359375 C 3.375,-0.328125 2.9375,-0.109375 2.5,-0.109375 2.046875,-0.109375 1.6875,-0.375 1.453125,-0.75 1.203125,-1.15625 1.171875,-1.71875 1.171875,-2.140625 1.171875,-2.5 1.1875,-3.09375 1.46875,-3.546875 1.6875,-3.859375 2.0625,-4.1875 2.609375,-4.1875 c 0.34375,0 0.765625,0.15625 1.0625,0.59375 0.109375,0.171875 0.109375,0.1875 0.109375,0.375 z m 0,0"
               id="id-8642d6cf-f627-4b5d-90f3-3226d5fd29f6" />
          </g>
          <g
             transform="translate(154.247,134.765)"
             id="g99"
             style="fill:#ffffff">
            <path
               style="fill:#ffffff;stroke:none;stroke-width:0"
               d="M 4.6875,-2.140625 C 4.6875,-3.40625 3.703125,-4.46875 2.5,-4.46875 c -1.25,0 -2.21875,1.09375 -2.21875,2.328125 0,1.296875 1.03125,2.25 2.203125,2.25 1.203125,0 2.203125,-0.984375 2.203125,-2.25 z m -2.1875,2 c -0.4375,0 -0.875,-0.203125 -1.140625,-0.671875 -0.25,-0.4375 -0.25,-1.046875 -0.25,-1.40625 0,-0.390625 0,-0.921875 0.234375,-1.359375 C 1.609375,-4.03125 2.078125,-4.25 2.484375,-4.25 c 0.4375,0 0.859375,0.21875 1.125,0.65625 0.265625,0.421875 0.265625,1 0.265625,1.375 0,0.359375 0,0.90625 -0.21875,1.34375 C 3.421875,-0.421875 2.984375,-0.140625 2.5,-0.140625 Z m 0,0"
               id="id-cb967628-b2dc-4efa-8dc8-3936d667f3c4" />
          </g>
        </g>
        <g
           style="fill:#ffffff;fill-opacity:1"
           id="id-0f74327c-d6dc-4583-90c6-e9b1edb95f73">
          <g
             transform="translate(159.507,134.765)"
             id="g103"
             style="fill:#ffffff">
            <path
               style="fill:#ffffff;stroke:none;stroke-width:0"
               d="m 1.171875,-2.171875 c 0,-1.625 0.8125,-2.046875 1.34375,-2.046875 0.09375,0 0.71875,0.015625 1.0625,0.375 -0.40625,0.03125 -0.46875,0.328125 -0.46875,0.453125 0,0.265625 0.1875,0.453125 0.453125,0.453125 0.265625,0 0.46875,-0.15625 0.46875,-0.46875 0,-0.671875 -0.765625,-1.0625 -1.53125,-1.0625 -1.25,0 -2.15625,1.078125 -2.15625,2.3125 0,1.28125 0.984375,2.265625 2.140625,2.265625 1.328125,0 1.65625,-1.203125 1.65625,-1.296875 0,-0.09375 -0.109375,-0.09375 -0.140625,-0.09375 -0.078125,0 -0.109375,0.03125 -0.125,0.09375 -0.28125,0.921875 -0.9375,1.046875 -1.296875,1.046875 -0.53125,0 -1.40625,-0.421875 -1.40625,-2.03125 z m 0,0"
               id="id-199f6f14-87de-4685-abb2-4471b7cd9d32" />
          </g>
        </g>
      </g>
    </g>
  </g>
</svg>
