<!--
  - Copyright (c) 2022 Manuel Schneider
  -->

<svg xmlns="http://www.w3.org/2000/svg" viewBox="0 0 150 150"><g fill="none" fill-rule="evenodd"><path fill="#48AC42" d="M73.224.426c1.477-.806 3.336-.395 4.6.626 1.563 1.24 2.506 3.062 3.304 4.842 1.49 3.668 2.045 7.634 2.227 11.566 4.178-2.158 8.733-3.97 13.507-3.942 1.91.016 4.047.427 5.32 1.985.86.98.996 2.378.762 3.617-.346 1.84-1.315 3.492-2.423 4.976-2.654 3.46-6.175 6.157-9.92 8.345-4.02 2.29-8.44 4.07-13.088 4.442-2.34.075-4.705.12-7.02-.297-3.695-.704-7.184-2.204-10.468-4.007-3.965-2.286-7.696-5.146-10.422-8.86-1.415-2.06-2.853-4.634-1.972-7.197.955-2.415 3.88-3.035 6.205-3.03 4.555.135 8.932 1.746 12.936 3.83.128-4.037.787-8.103 2.362-11.837.883-1.993 2.14-3.978 4.092-5.057"/><path fill="#E4262C" d="M27.585 83.723c14.128.004 28.255 0 42.383-.003.026-6.95-.013-13.9.016-20.85 3.473-.046 6.95.016 10.422-.02-.023 6.96-.01 13.914-.003 20.873h20.905c-.068-6.954-.013-13.908-.026-20.863 3.473-.02 6.95.02 10.425-.013-.01 6.955-.013 13.91 0 20.866 2.874.006 5.748.008 8.622.01h9.32c1.74 0 3.478 0 5.218-.003v.002h15.11c-.388-5.004-1.404-9.957-3.14-14.672-2.397-6.564-6.24-12.648-11.39-17.403-6.167-5.85-14.165-9.502-22.435-11.21C101.1 38.01 88.756 39.18 77 41.89c-.9.177-1.855.65-2.762.242-8.592-2.997-17.713-4.693-26.834-4.308-9.407.39-18.75 3.343-26.465 8.782-4.435 3.205-8.346 7.14-11.54 11.586C4.153 65.712.84 74.59 0 83.722h27.585zM96.03 128.4c-.034 1.468-1.54 2.453-2.92 2.322-11.292-.003-22.582-.003-33.874 0-.985-.016-1.983.07-2.958-.11-1.565-.39-2.432-2.39-1.552-3.77 2.527-4.22 5.57-8.1 8.58-11.98 3.127-3.92 6.345-7.768 9.792-11.417.42-.45.933-.85 1.552-.972 1.077-.238 2.123.33 2.795 1.148 6.378 6.973 12.342 14.342 17.595 22.2.558.75 1.18 1.58.99 2.58zM83.325 94.15H.015c.72 8.108 3.084 16.078 7.23 23.096 6.46 11.084 16.93 19.395 28.527 24.626 14.263 6.444 30.192 8.818 45.76 7.82 14.15-.988 28.28-4.77 40.454-12.176 9.52-5.762 17.7-13.983 22.604-24.036 2.977-6.03 4.713-12.64 5.318-19.33H83.326z"/></g></svg>