<!--
  - Copyright (c) 2022 Manuel Schneider
  -->

<svg height="96" width="96" xmlns="http://www.w3.org/2000/svg" xmlns:xlink="http://www.w3.org/1999/xlink"><linearGradient id="a"><stop offset="0" stop-color="#fff"/><stop offset="1" stop-color="#fff" stop-opacity="0"/></linearGradient><linearGradient id="b" gradientUnits="userSpaceOnUse" x1="36.357143" x2="36.357143" xlink:href="#a" y1="6" y2="63.893143"/><filter id="c" color-interpolation-filters="sRGB" height="1.384" width="1.384" x="-.192" y="-.192"><feGaussianBlur stdDeviation="5.28"/></filter><linearGradient id="d" gradientUnits="userSpaceOnUse" x1="48" x2="48" xlink:href="#a" y1="20.220806" y2="138.66119"/><radialGradient id="e" cx="48" cy="90.171875" gradientTransform="matrix(1.1573129 0 0 .99590774 -7.551021 .197132)" gradientUnits="userSpaceOnUse" r="42" xlink:href="#a"/><clipPath id="f"><rect height="84" rx="6" width="84" x="6" y="6"/></clipPath><linearGradient id="g" gradientTransform="matrix(1.0058652 0 0 .994169 100 0)" gradientUnits="userSpaceOnUse" x1="45.447727" x2="45.447727" y1="92.539597" y2="7.01654"><stop offset="0"/><stop offset="1" stop-opacity=".588235"/></linearGradient><linearGradient id="h" gradientTransform="matrix(1.0238095 0 0 1.0119048 -1.142857 -98.071429)" gradientUnits="userSpaceOnUse" x1="32.251034" x2="32.251034" xlink:href="#g" y1="6.131708" y2="90.238609"/><linearGradient id="i" gradientTransform="translate(0 -97)" gradientUnits="userSpaceOnUse" x1="32.251034" x2="32.251034" xlink:href="#g" y1="6.131708" y2="90.238609"/><radialGradient id="j" cx="48" cy="48" gradientUnits="userSpaceOnUse" r="32"><stop offset="0" stop-color="#fff"/><stop offset=".89999998" stop-color="#fff"/><stop offset="1" stop-color="#e5e5e5"/></radialGradient><radialGradient id="k" cx="48.000896" cy="46.058418" gradientUnits="userSpaceOnUse" r="3"><stop offset="0" stop-color="#fff"/><stop offset="1" stop-color="#a2a2a2"/></radialGradient><linearGradient id="l" gradientUnits="userSpaceOnUse" x1="56" x2="56" xlink:href="#a" y1="48" y2="16"/><linearGradient id="m" gradientUnits="userSpaceOnUse" x1="48" x2="48" y1="90" y2="5.987717"><stop offset="0" stop-color="#6bc72e"/><stop offset="1" stop-color="#b5f48b"/></linearGradient><filter id="n" color-interpolation-filters="sRGB"><feGaussianBlur stdDeviation=".4359375"/></filter><g fill="url(#h)"><path d="m12-95.03125c-5.5110903 0-10.03125 4.52016-10.03125 10.03125v71c0 5.5110902 4.5201598 10.03125 10.03125 10.03125h72c5.51109 0 10.03125-4.5201597 10.03125-10.03125v-71c0-5.51109-4.52016-10.03125-10.03125-10.03125z" opacity=".08" transform="scale(1 -1)"/><path d="m12-94.03125c-4.971633 0-9.03125 4.059617-9.03125 9.03125v71c0 4.9716329 4.0596171 9.03125 9.03125 9.03125h72c4.971633 0 9.03125-4.059617 9.03125-9.03125v-71c0-4.971633-4.059617-9.03125-9.03125-9.03125z" opacity=".1" transform="scale(1 -1)"/><path d="m12-93c-4.4091333 0-8 3.590867-8 8v71c0 4.4091333 3.5908667 8 8 8h72c4.409133 0 8-3.5908667 8-8v-71c0-4.409133-3.590867-8-8-8z" opacity=".2" transform="scale(1 -1)"/><rect height="85" opacity=".3" rx="7" transform="scale(1 -1)" width="86" x="5" y="-92"/></g><rect fill="url(#i)" height="84" opacity=".45" rx="6" transform="scale(1 -1)" width="84" x="6" y="-91"/><rect fill="url(#m)" height="84" rx="6" width="84" x="6" y="6"/><path d="m12 6c-3.324 0-6 2.676-6 6v2 68 2c0 .334721.04135.6507.09375.96875.0487.295596.09704.596915.1875.875.00988.03038.020892.0636.03125.09375.098865.287771.2348802.547452.375.8125.1445918.273507.3156161.535615.5.78125s.3737765.473472.59375.6875c.439947.428056.94291.814526 1.5 1.09375.278545.139612.5734731.246947.875.34375-.2562018-.100222-.4867109-.236272-.71875-.375-.00741-.0044-.023866.0045-.03125 0-.031933-.0193-.062293-.04251-.09375-.0625-.120395-.0767-.2310226-.163513-.34375-.25-.1061728-.0808-.2132809-.161112-.3125-.25-.1779299-.161433-.3474596-.345388-.5-.53125-.1075789-.130255-.2183939-.265285-.3125-.40625-.025089-.03838-.038446-.08587-.0625-.125-.064763-.103032-.1302275-.204517-.1875-.3125-.1010083-.194706-.2056748-.415701-.28125-.625-.00796-.02181-.023589-.04055-.03125-.0625-.0318251-.09195-.0358045-.186831-.0625-.28125-.0303323-.106618-.0703894-.203031-.09375-.3125-.0728786-.341512-.125-.698205-.125-1.0625v-2-68-2c0-2.781848 2.2181517-5 5-5h2 68 2c2.781848 0 5 2.218152 5 5v2 68 2c0 .364295-.05212.720988-.125 1.0625-.04415.206893-.08838.397658-.15625.59375-.0077.02195-.0233.04069-.03125.0625-.06274.173739-.138383.367449-.21875.53125-.04158.0828-.07904.169954-.125.25-.0546.09721-.126774.18835-.1875.28125-.09411.140965-.204921.275995-.3125.40625-.143174.17445-.303141.346998-.46875.5-.01117.0102-.01998.02115-.03125.03125-.138386.125556-.285091.234436-.4375.34375-.102571.07315-.204318.153364-.3125.21875-.0074.0045-.02384-.0044-.03125 0-.232039.138728-.462548.274778-.71875.375.301527-.0968.596455-.204138.875-.34375.55709-.279224 1.060053-.665694 1.5-1.09375.219973-.214028.409366-.441865.59375-.6875s.355408-.507743.5-.78125c.14012-.265048.276135-.524729.375-.8125.01041-.03078.02133-.06274.03125-.09375.09046-.278085.1388-.579404.1875-.875.0524-.31805.09375-.634029.09375-.96875v-2-68-2c0-3.324-2.676-6-6-6z" fill="url(#b)" opacity=".5"/><path d="m12 90c-3.324 0-6-2.676-6-6v-2-68-2c0-.334721.04135-.6507.09375-.96875.0487-.295596.09704-.596915.1875-.875.00988-.03038.020892-.0636.03125-.09375.098865-.287771.2348802-.547452.375-.8125.1445918-.273507.3156161-.535615.5-.78125s.3737765-.473472.59375-.6875c.439947-.428056.94291-.814526 1.5-1.09375.278545-.139612.5734731-.246947.875-.34375-.2562018.100222-.4867109.236272-.71875.375-.00741.0044-.023866-.0045-.03125 0-.031933.0193-.062293.04251-.09375.0625-.120395.0767-.2310226.163513-.34375.25-.1061728.0808-.2132809.161112-.3125.25-.1779299.161433-.3474596.345388-.5.53125-.1075789.130255-.2183939.265285-.3125.40625-.025089.03838-.038446.08587-.0625.125-.064763.103032-.1302275.204517-.1875.3125-.1010083.194706-.2056748.415701-.28125.625-.00796.02181-.023589.04055-.03125.0625-.0318251.09195-.0358045.186831-.0625.28125-.0303323.106618-.0703894.203031-.09375.3125-.0728786.341512-.125.698205-.125 1.0625v2 68 2c0 2.781848 2.2181517 5 5 5h2 68 2c2.781848 0 5-2.218152 5-5v-2-68-2c0-.364295-.05212-.720988-.125-1.0625-.04415-.206893-.08838-.397658-.15625-.59375-.0077-.02195-.0233-.04069-.03125-.0625-.06274-.173739-.138383-.367449-.21875-.53125-.04158-.0828-.07904-.169954-.125-.25-.0546-.09721-.126774-.18835-.1875-.28125-.09411-.140965-.204921-.275995-.3125-.40625-.143174-.17445-.303141-.346998-.46875-.5-.01117-.0102-.01998-.02115-.03125-.03125-.138386-.125556-.285091-.234436-.4375-.34375-.102571-.07315-.204318-.153364-.3125-.21875-.0074-.0045-.02384.0044-.03125 0-.232039-.138728-.462548-.274778-.71875-.375.301527.0968.596455.204138.875.34375.55709.279224 1.060053.665694 1.5 1.09375.219973.214028.409366.441865.59375.6875s.355408.507743.5.78125c.14012.265048.276135.524729.375.8125.01041.03078.02133.06274.03125.09375.09046.278085.1388.579404.1875.875.0524.31805.09375.634029.09375.96875v2 68 2c0 3.324-2.676 6-6 6z" fill="url(#e)" opacity=".2"/><path d="m12 6c-3.324 0-6 2.676-6 6v30.0625c12.212492 4.668486 26.585126 7.375 42 7.375s29.787508-2.706514 42-7.375v-30.0625c0-3.324-2.676-6-6-6z" fill="url(#l)" opacity=".4"/><rect height="66" rx="12" style="opacity:.1;stroke:#fff;stroke-width:.5;stroke-linecap:round;clip-path:url(#f);fill:url(#d);filter:url(#c)" width="66" x="15" y="15"/><path d="m80 48a32 32 0 1 1 -64 0 32 32 0 1 1 64 0z" fill="#67ba2f" transform="matrix(0 1.09375 -1.09375 0 100.5 -4.5)"/><path d="m80 48a32 32 0 1 1 -64 0 32 32 0 1 1 64 0z" fill="url(#j)" transform="matrix(0 1.0625 -1.0625 0 99 -3)"/><path d="m36.9375 28.84375-.875.5 9.6875 16.78125-12.96875-6.78125-.75 1.3125 13.875 8.8125-2.40625 3.5.53125.53125 4.1875-2.84375 4.78125 1.65625.375-.625-3.21875-2.78125 15.34375-16.34375-1.0625-1.0625-16.6875 15.65625-.3125-.15625z" filter="url(#n)" opacity=".3"/><path d="m48 14c-18.777681 0-34 15.222319-34 34 0 .167604-.0024.33297 0 .5.268394-18.546254 15.389923-33.5 34-33.5s33.731606 14.953746 34 33.5c.002417-.16703 0-.332396 0-.5 0-18.777681-15.222319-34-34-34z" opacity=".1"/><path d="m46.93934 46.93934 17.500893-16.440233 1.06066 1.06066-16.440233 17.500893-5.038136 3.447146-.53033-.53033z"/><path d="m13 48.5c-.0023.166037 0 .333412 0 .5 0 19.329966 15.670034 35 35 35s35-15.670034 35-35c0-.166588.0023-.333963 0-.5-.266881 19.099954-15.836622 34.5-35 34.5s-34.733119-15.400046-35-34.5z" fill="#afef86"/><g><path d="m46.195551 24h-.71207v-3.693864c-.000003-.115977-.000003-.24005 0-.372218.0027-.132161.0054-.262976.0081-.392448.0054-.13216.0094-.257581.01214-.376264.0054-.121371.0094-.227912.01214-.319623-.04586.04856-.08631.09036-.121375.125422-.03507.03507-.07148.06878-.109238.101146-.03507.03237-.07283.06744-.113284.105192-.04046.03507-.08901.07688-.145651.125422l-.598786.489548-.388402-.49764 1.549562-1.20971h.606878v5.915037"/><path d="m51.960891 24h-3.689818v-.631153l1.416049-1.54147c.20229-.218474.383005-.418069.542144-.598786.159134-.180712.293996-.357381.404585-.530007.113281-.17262.199593-.345242.258935-.517869.05934-.175316.08901-.365471.08901-.570465-.000003-.159133-.02293-.299389-.06878-.420769-.04586-.121371-.111938-.223866-.198247-.307485-.08362-.08631-.183414-.15104-.299393-.194201-.115983-.04315-.24545-.06473-.388402-.06473-.256239.000006-.488201.0526-.695886.157789-.204991.1025-.400541.234664-.586649.396493l-.412677-.481456c.107889-.09709.22387-.187453.347943-.271072.124072-.08631.257585-.16048.40054-.222522.142952-.06203.293997-.110581.453135-.145651.159135-.03776.326364-.05664.501686-.05664.258932.000006.492243.03642.699933.109238.210381.07283.388398.178023.534052.315577.145647.134867.257583.300747.335806.49764.08091.194205.121372.41403.121376.659474-.000004.229269-.03642.447745-.109238.655428-.07013.20769-.168581.41268-.295348.614969-.124076.199599-.273772.400543-.449089.602833-.172626.202294-.360084.412679-.562374.631153l-1.136885 1.20971v.03237h2.787593v.671612"/></g><path d="m46.057992 75.471342c-.000001-.283207.01349-.565068.04046-.845583.02967-.280509.07957-.548884.149697-.805125.07282-.25893.171273-.498984.295347-.720162.124072-.221168.28186-.412672.473365-.574511.191502-.164526.420767-.292644.687795-.384356.267024-.0944.579903-.141599.938638-.141605.05124.000006.107886.0014.169926.004.06203.0027.124069.0081.186109.01618.06473.0054.125418.01349.182063.02428.05934.0081.111932.01889.157788.03237v.627108c-.09441-.03236-.200947-.05664-.319622-.07283-.118682-.01618-.236011-.02427-.351989-.02428-.242754.000005-.457184.02968-.643291.08901-.183414.05665-.342551.137564-.47741.242751-.134864.105197-.248148.230618-.339852.376264-.08901.145656-.161836.30749-.218476.485503-.05664.175324-.09845.362782-.125422.562373-.02697.199599-.04451.407286-.0526.623062h.04855c.05394-.0971.118677-.187455.194201-.271073.07822-.08631.168575-.159133.271072-.218476.102493-.06203.217125-.110583.343897-.14565.129465-.03506.273767-.05259.432906-.0526.256235.000003.488197.04046.695887.121375.207684.07822.384353.194204.530007.347944.145647.153745.257582.342551.335806.566419.08091.221176.121371.474716.121375.76062-.000004.307487-.04181.583953-.125421.8294-.08362.245449-.203645.454485-.360081.627107-.156443.169926-.34525.300742-.56642.392448-.221176.09171-.469321.137559-.744436.137559-.269726 0-.523266-.0526-.760621-.157788-.234661-.105192-.438302-.265678-.610924-.481457-.172624-.215778-.308834-.48685-.408631-.813216-.0998-.326364-.149697-.712068-.149696-1.157114m1.92178 1.99056c.161831 0 .308831-.02697.440998-.08092.134859-.05664.25084-.140256.347943-.250843.0971-.113283.171271-.254888.222522-.424815.05394-.172622.08091-.376263.08092-.610924-.000003-.188804-.02293-.357381-.06878-.505731-.04316-.151043-.109242-.279162-.198247-.384356-.08901-.10519-.200947-.186107-.335806-.242752-.132167-.05664-.287258-.08496-.465273-.08496-.180717.000003-.346597.03237-.49764.0971-.14835.06204-.27512.144305-.38031.246797-.105194.0998-.187459.214433-.246797.343898-.05664.129469-.08496.258936-.08496.388401-.000001.180717.02427.361432.07283.542145.05125.178019.12542.338504.222522.481456.0998.142955.223869.260284.372219.351989.148346.08901.320968.133514.517869.133514"/><path d="m76.488871 46.468645c-.000004.196902-.03102.376268-.09305.538098-.06204.161838-.149701.302094-.262981.420769-.11059.118682-.244103.217131-.400539.295347-.156443.07553-.330414.129471-.521915.161834v.02428c.477407.05934.840185.211736 1.088334.457182.248142.242753.372214.559678.372219.950775-.000005.258936-.04451.496293-.133514.71207-.08631.21578-.218479.401889-.396493.558328-.178021.15644-.40324.277815-.675658.364127-.272423.08631-.594742.129467-.966958.129467-.294001 0-.571816-.02293-.833446-.06878-.258936-.04585-.503035-.129468-.7323-.250843v-.687795c.234659.124073.488199.219825.760621.287255.275116.06743.538097.101147.788941.101147.248144 0 .462574-.02697.643291-.08092.180712-.05395.32906-.130816.445044-.230614.118675-.0998.204986-.222521.258934-.368173.05664-.145649.08496-.308832.08496-.489548-.000003-.18341-.03642-.33985-.109238-.469319-.07013-.132162-.171277-.240051-.303439-.323668-.132167-.08631-.294001-.149694-.485502-.190155-.188809-.04046-.403239-.06068-.643291-.06069h-.538098v-.610924h.538098c.218474.000004.412675-.02697.582603-.08092.169923-.05394.311528-.130812.424814-.230613.115979-.09979.203639-.218473.262981-.356036.05934-.137554.08901-.288599.08901-.453135-.000003-.140252-.02428-.265673-.07283-.376264-.04855-.110582-.117332-.203637-.206338-.279164-.08901-.07822-.195552-.137554-.319623-.178018-.124075-.04045-.261634-.06068-.412677-.06069-.288606.000006-.543494.04586-.764666.137559-.218477.08901-.427512.206344-.627107.35199l-.372218-.505732c.102494-.08361.215778-.161829.339851-.234659.126769-.07282.264328-.136205.412677-.190156.148347-.05664.306135-.10114.473365-.133513.169924-.03236.34929-.04854.538098-.04855.291299.000006.546188.03642.764667.109238.22117.07283.40593.175326.554281.307485.148345.129473.26028.284564.335806.465273.07552.178023.11328.373572.113284.586649"/><path d="m22.759947 47.609575c-.000004.283213-.01484.566422-.0445.849629-.02698.280515-.07688.54889-.149697.805125-.07013.256239-.167232.496293-.291301.720162-.124077.221174-.281865.412678-.473365.574511-.191507.161834-.420772.289953-.687795.384356-.267029.09171-.579908.137559-.938638.137559-.05125 0-.107891-.0013-.169926-.004-.06204-.0027-.124074-.0081-.186109-.01618-.06204-.0054-.122725-.01214-.182063-.02023-.05934-.0081-.111937-.01888-.157789-.03237v-.631153c.0944.03506.200943.06069.319623.07687.118677.01618.236006.02428.351989.02428.364125 0 .663518-.06338.898179-.190155.234657-.126769.420766-.298044.558328-.513823.137556-.218475.234656-.472015.291301-.760621.05934-.288602.09575-.593389.109238-.914363h-.0526c-.05395.0971-.118681.187461-.194201.271073-.07552.08362-.164534.156442-.267026.218476-.102498.06204-.218479.110589-.347943.14565-.12947.03507-.273772.0526-.432906.0526-.25624.000003-.488202-.03911-.695887-.117329-.207688-.080968-.384357-.198298-.530007-.352042-.145651-.15374-.258935-.341198-.339852-.562374-.07822-.223867-.11733-.478756-.117329-.764666-.000001-.307481.04181-.583947.125421-.8294.08631-.248141.206338-.457176.360081-.627107.156439-.172618.345245-.304782.566419-.396494.223869-.0917.473363-.137553.748483-.137559.272419.000006.525958.0526.760621.157788.234656.105198.438297.265684.610923.481457.17262.215784.30883.488204.408632.817262.09979.32637.149692.710725.149696 1.153068m-1.92178-1.986514c-.161836.000006-.310184.02698-.445044.08092-.132166.05395-.246798.137564-.343897.250842-.0971.113289-.172625.256243-.226568.428861-.05125.16993-.07687.372223-.07687.606878-.000001.18881.02158.358736.06473.509777.04585.148352.113283.275121.202293.38031.08901.105196.199594.186113.33176.242752.13486.05664.291299.08497.469319.08496.183409.000003.349289-.03101.49764-.09305.148345-.06473.275115-.146996.38031-.246797.105189-.102492.186106-.218473.242751-.347944.05934-.129463.08901-.25893.08901-.388401-.000004-.180711-.02563-.360077-.07687-.538099-.04855-.18071-.122728-.342544-.222522-.485502-.0971-.145646-.219828-.262975-.368173-.351989-.14835-.089-.320973-.133508-.517869-.133514"/><path d="m61.306009 27.486624h-.474713v-2.462576c-.000002-.07732-.000002-.160034 0-.248146.0018-.08811.0036-.175317.0054-.261632.0036-.08811.0063-.171721.0081-.250843.0036-.08091.0063-.15194.0081-.213081-.03057.03237-.05754.06024-.08092.08361-.02338.02338-.04765.04586-.07283.06743-.02338.02158-.04855.04496-.07552.07013-.02697.02338-.05934.05125-.0971.08361l-.399191.326366-.258934-.33176 1.033041-.806473h.404585v3.943358"/><path d="m34.141365 72.52195 1.518543-3.495617h-2.033715v-.447741h2.535401v.391099l-1.496966 3.552259z"/><path d="m71.636011 37.010368h-2.459879v-.420768l.944033-1.027647c.13486-.145649.255336-.278713.361429-.399191.10609-.120474.195998-.238254.269724-.353338.07552-.11508.133061-.230161.172623-.345246.03956-.116877.05934-.243647.05934-.38031-.000002-.106088-.01529-.199592-.04585-.280513-.03057-.08091-.07462-.149243-.132165-.204989-.05574-.05754-.122276-.100694-.199595-.129468-.07732-.02877-.163634-.04315-.258935-.04316-.170826.000004-.325467.03507-.463924.105193-.136661.06833-.267027.156443-.391099.264329l-.275118-.320971c.07193-.06473.149246-.124969.231962-.180715.08271-.05754.171723-.106987.267026-.148348.0953-.04135.195998-.07372.302091-.0971.10609-.02517.217575-.03776.334457-.03776.172621.000004.328162.02428.466622.07283.140254.04855.258932.118682.356035.210384.0971.08991.171721.200498.22387.33176.05394.12947.08092.27602.08092.439649-.000002.152846-.02428.298497-.07283.436952-.04676.138461-.112387.275121-.196898.40998-.08272.133066-.182515.267028-.299393.401888-.115084.134864-.240056.27512-.374916.420769l-.757923.806473v.02158h1.858395v.447741"/><path d="m25.407814 59.004974c.151044.000004.293098.01978.426163.05934.13486.03956.252639.0989.353338.178017.102493.07912.18341.178022.242752.296696.05934.118682.08901.25714.08901.415375-.000002.120479-.01798.229267-.05394.326365-.03597.0971-.08542.185213-.148348.264329-.06294.07732-.137562.147451-.223871.210385-.08631.06114-.179818.116882-.280512.167228.104291.05575.205886.117781.304787.186109.100695.06833.189703.145653.267026.231963.07912.08451.142052.179817.188807.285907.04855.106092.07282.22477.07283.356035-.000002.165431-.03057.315577-.09171.450438-.05934.133064-.143855.246348-.25354.339852-.107892.0935-.238258.16543-.391099.215778-.151047.05035-.318275.07552-.501686.07552-.197798 0-.374018-.02427-.528658-.07283-.152844-.04855-.282311-.117779-.388402-.207687-.104293-.09171-.184311-.203192-.240054-.334458-.05394-.131264-.08092-.279612-.08092-.445043 0-.134861.01978-.256237.05934-.364127.04136-.107888.0962-.204989.164532-.291302.06833-.08631.149246-.162731.242751-.229265.0935-.06653.192402-.12497.296696-.17532-.08811-.05574-.170826-.115979-.248146-.180715-.07732-.06653-.144752-.140254-.202292-.221173-.05574-.08091-.100698-.169923-.134862-.267026-.03237-.0989-.04855-.207685-.04855-.326366-.000001-.156436.02967-.293096.08901-.40998.06114-.118674.142953-.217573.245449-.296696.102494-.07912.220273-.138454.353338-.178017.13486-.03956.275116-.05933.420768-.05934m-.755226 3.00472c0 .0953.01438.183413.04316.264329.02877.07912.07372.14745.134862.20499.06114.05574.138457.0998.231962.132165.0935.03057.204989.04585.334457.04585.12587 0 .236456-.01528.33176-.04585.0971-.03237.178016-.07732.242751-.134862.06473-.05934.113282-.130366.145651-.213082.03236-.08271.04855-.17442.04855-.275118-.000002-.0935-.01798-.178016-.05394-.25354-.03417-.07552-.08452-.145649-.151045-.210384-.06474-.06473-.142956-.12587-.23466-.183412-.09171-.05754-.194203-.114182-.307485-.169926l-.08092-.03776c-.226569.107892-.397394.231964-.512475.372219-.115082.138459-.172623.306587-.172623.504383m.749832-2.59474c-.190606.000003-.34255.04765-.455833.142953-.111487.09531-.167229.233764-.167229.415374 0 .102498.01528.190608.04585.264329.03237.07373.07642.13936.132165.196899.05574.05754.122273.10969.199595.156439.07912.04496.16453.08901.256238.132165.08631-.03956.167227-.08271.242751-.129468.07732-.04675.143851-.0998.199595-.159136.05754-.05934.102493-.126768.134862-.202293.03236-.07552.04855-.161831.04855-.258935-.000002-.18161-.05664-.320068-.169925-.415374-.113286-.0953-.268827-.14295-.466622-.142953"/><path d="m71.836832 62.104435h-.574511v.884693h-.474713v-.884693h-1.820634v-.428861l1.788267-2.651382h.50708v2.632502h.574511zm-1.049224-.447741v-.960216c-.000002-.100694.000897-.205886.0027-.315577.0036-.111483.0072-.219372.01079-.323668.0036-.106088.0072-.204987.01079-.296696.0054-.0917.009-.168124.01079-.229265h-.02428c-.01259.03597-.02877.07643-.04855.121376-.01798.04316-.03866.08721-.06204.132164-.02158.04316-.04406.08542-.06743.12677-.02338.04136-.04496.07643-.06473.105193l-1.108563 1.639919h1.340526"/><g><path d="m24.268108 36.989128h-.474714v-2.462576c-.000001-.07732-.000001-.160033 0-.248146.0018-.08811.0036-.175317.0054-.261631.0036-.08811.0063-.171721.0081-.250843.0036-.08091.0063-.151941.0081-.213082-.03057.03237-.05754.06024-.08092.08361-.02338.02338-.04765.04586-.07283.06743-.02338.02158-.04855.04496-.07552.07013-.02697.02338-.05934.05125-.0971.08362l-.39919.326365-.258935-.33176 1.033041-.806473h.404586v3.943358"/><path d="m28.176402 35.012055c-.000003.318275-.02338.603283-.07013.855023-.04496.251743-.118681.464824-.221174.639245-.100699.174422-.231065.307485-.391099.399191-.160038.09171-.354238.137559-.582603.137559-.212183 0-.397393-.04585-.55563-.137559-.156441-.09171-.286807-.224769-.391099-.399191-.102496-.174421-.179816-.387502-.231963-.639245-.05035-.25174-.07552-.536748-.07552-.855023 0-.318272.02248-.60328.06743-.855024.04675-.251739.119577-.463921.218476-.636548.100696-.174417.230163-.307481.388402-.399191.160035-.0917.353336-.137555.579905-.137559.213979.000004.400088.04586.558328.137559.158236.08991.289501.222077.393796.396494.104291.172626.182511.384809.23466.636548.05214.251744.07822.537651.07822.857721m-2.02023 0c0 .269725.01349.505283.04046.706675.02697.201395.07013.369522.129467.504383.05934.133064.136659.233761.231962.302091.0971.06653.214879.0998.353338.0998.138457.000001.256236-.03327.353338-.0998.0971-.06653.176218-.166329.237357-.299394.06293-.133062.107887-.300291.134862-.501685.02877-.203191.04315-.440547.04315-.71207-.000002-.269722-.01439-.50528-.04315-.706676-.02698-.201391-.07193-.368619-.134862-.501686-.06114-.13306-.140258-.232858-.237357-.299393-.0971-.06653-.214881-.09979-.353338-.0998-.138459.000004-.256238.03327-.353338.0998-.0953.06654-.172624.166333-.231962.299393-.05934.133067-.102496.300295-.129467.501686-.02697.201396-.04046.436954-.04046.706676"/></g><path d="m60.865348 70.112791c.178016.000003.343446.02518.496291.07552.15464.04855.288602.121378.401888.218476.11508.0971.204988.217579.269724.361429.06473.143855.0971.310184.0971.498989-.000002.204991-.03057.389302-.09171.552933-.06114.163633-.151946.302091-.27242.415374-.120479.113284-.269726.200495-.447741.261632-.176222.05934-.379413.08901-.609576.08901-.09171 0-.182514-.0045-.27242-.01349-.08811-.009-.173523-.02248-.256238-.04046-.08092-.01618-.158238-.03776-.231962-.06473-.07372-.02697-.140257-.05844-.199595-.0944v-.463924c.05934.04136.128567.07822.207687.110587.08092.03237.165429.05934.25354.08092.08811.02158.176218.03866.264329.05125.08991.01079.172622.01618.248146.01618.142052 0 .268822-.01618.38031-.04855.111484-.03416.205887-.08631.283209-.156439.07732-.07013.136658-.158237.178018-.264329.04135-.106091.06203-.231962.06204-.377613-.000002-.257135-.07912-.453134-.237356-.587998-.15824-.136658-.388404-.204988-.690493-.20499-.04855.000002-.101597.0027-.159137.0081-.05574.0036-.112385.009-.169925.01618-.05574.0072-.109689.01529-.161834.02428-.05035.0072-.0944.01439-.132165.02158l-.242751-.153742.148348-1.855698h1.861092v.447741h-1.434929l-.105192 1.130142c.05754-.01079.133062-.02248.226568-.03506.0953-.01259.207685-.01888.337154-.01888"/><g><path d="m33.791848 27.49889h-.474713v-2.462576c-.000002-.07732-.000002-.160033 0-.248146.0018-.08811.0036-.175317.0054-.261632.0036-.08811.0063-.17172.0081-.250842.0036-.08091.0063-.151941.0081-.213082-.03057.03237-.05754.06024-.08092.08361-.02338.02338-.04765.04586-.07283.06743-.02338.02158-.04855.04496-.07552.07013-.02697.02338-.05934.05125-.0971.08361l-.399191.326365-.258934-.33176 1.033041-.806473h.404585v3.943358"/><path d="m36.83433 27.49889h-.474713v-2.462576c-.000002-.07732-.000002-.160033 0-.248146.0018-.08811.0036-.175317.0054-.261632.0036-.08811.0063-.17172.0081-.250842.0036-.08091.0063-.151941.0081-.213082-.03057.03237-.05754.06024-.08092.08361-.02338.02338-.04765.04586-.07283.06743-.02338.02158-.04855.04496-.07552.07013-.02697.02338-.05934.05125-.0971.08361l-.399191.326365-.258935-.33176 1.033042-.806473h.404585v3.943358"/></g><path d="m47.25 49.299038-15.213457-9.649519.75-1.299038 15.963457 8.350481 4.633652 3.974278-.375.64952z"/><path d="m51 48a3 3 0 1 1 -6 0 3 3 0 1 1 6 0z" transform="matrix(.66666667 0 0 .66666667 16 16)"/><path d="m51 48a3 3 0 1 1 -6 0 3 3 0 1 1 6 0z" transform="translate(-80)"/><path d="m-34 46 1-16h2l1 16z"/><path d="m-30 46 22 1v2l-22 1z"/><path d="m51 48a3 3 0 1 1 -6 0 3 3 0 1 1 6 0z" fill="#f00" transform="matrix(.5 0 0 .5 24 24)"/><path d="m51 48a3 3 0 1 1 -6 0 3 3 0 1 1 6 0z" fill="url(#k)" transform="matrix(.33333333 0 0 .33333333 32 32)"/><path d="m-18.06922-64.569221h1v22h-1z" fill="#f00" transform="matrix(-.86602541 .49999999 -.49999999 -.86602541 0 0)"/></svg>