<?xml version="1.0" encoding="UTF-8"?>
<svg enable-background="new 0 0 117.3 117.3" version="1.1" viewBox="0 0 117.3 117.3" xml:space="preserve" xmlns="http://www.w3.org/2000/svg">

	<linearGradient id="a" x1="58.666" x2="58.666" y1="117.33" gradientUnits="userSpaceOnUse">
		<stop stop-color="#0882C8" offset="0"/>
		<stop stop-color="#26B6DB" offset="1"/>
	</linearGradient>
	<circle cx="58.7" cy="58.7" r="58.7" fill="url(#a)"/>
	
		<circle cx="58.7" cy="58.5" r="43.7" fill="none" stroke="#fff" stroke-miterlimit="10" stroke-width="6"/>
		
			<path d="m94.7 47.8c4.7 1.6 9.8-0.9 11.4-5.6s-0.9-9.8-5.6-11.4-9.8 0.9-11.4 5.6 0.9 9.8 5.6 11.4z" fill="#fff"/>
			<line x1="97.6" x2="67.5" y1="39.4" y2="64.4" fill="none" stroke="#fff" stroke-miterlimit="10" stroke-width="6"/>
		
		
			<path d="m77.6 91c-0.4 4.9 3.2 9.3 8.2 9.8 5 0.4 9.3-3.2 9.8-8.2 0.4-4.9-3.2-9.3-8.2-9.8-5-0.4-9.4 3.2-9.8 8.2z" fill="#fff"/>
			<line x1="86.5" x2="67.5" y1="91.8" y2="64.4" fill="none" stroke="#fff" stroke-miterlimit="10" stroke-width="6"/>
		
		<path d="m60 69.3c2.7 4.2 8.3 5.4 12.4 2.7 4.2-2.7 5.4-8.3 2.7-12.4-2.7-4.2-8.3-5.4-12.4-2.7-4.2 2.6-5.4 8.2-2.7 12.4z" fill="#fff"/>
		
			<path d="m21.2 61.4c-4.3-2.5-9.8-1.1-12.3 3.1-2.5 4.3-1.1 9.8 3.1 12.3 4.3 2.5 9.8 1.1 12.3-3.1s1.1-9.7-3.1-12.3z" fill="#fff"/>
			<line x1="16.6" x2="67.5" y1="69.1" y2="64.4" fill="none" stroke="#fff" stroke-miterlimit="10" stroke-width="6"/>
		
	

</svg>
