<?xml version="1.0" encoding="utf-8"?>
<!-- Generator: Adobe Illustrator 19.1.1, SVG Export Plug-In . SVG Version: 6.00 Build 0)  -->
<svg version="1.1" id="Layer_1" xmlns="http://www.w3.org/2000/svg" xmlns:xlink="http://www.w3.org/1999/xlink" x="0px" y="0px"
	 viewBox="0 0 1200 1200" enable-background="new 0 0 1200 1200" xml:space="preserve">
<g>
	<g>
		<path fill="#D6BF9F" d="M1048.421,856.914V536.046V215.177c0-15.338-3.109-29.949-8.73-43.24s-13.755-25.258-23.806-35.31
			c-10.051-10.051-22.019-18.185-35.309-23.807c-13.29-5.621-27.901-8.73-43.238-8.73H556.573H175.809
			c-15.337,0-29.949,3.108-43.238,8.73c-13.29,5.621-25.258,13.755-35.309,23.807c-10.051,10.051-18.185,22.02-23.806,35.31
			s-8.73,27.902-8.73,43.24v320.869v320.869h491.848H1048.421z"/>
		<path fill="#2E4C59" d="M1048.424,871.645H556.576H64.728c-4.068,0-7.75-1.648-10.415-4.313S50,860.984,50,856.917V536.048
			V215.178c0-16.802,3.272-33.102,9.514-48.172s15.454-28.909,27.335-40.789c11.877-11.883,25.715-21.097,40.785-27.34
			s31.371-9.515,48.176-9.515h380.763h380.763c16.805,0,33.107,3.272,48.176,9.515c15.07,6.243,28.908,15.457,40.785,27.34
			c11.883,11.883,21.097,25.722,27.34,40.791s9.515,31.368,9.515,48.17v320.869v320.869c0,4.068-1.648,7.75-4.313,10.415
			S1052.492,871.645,1048.424,871.645z M79.456,842.189h477.12h477.12V528.684V215.178c0-12.867-2.505-25.35-7.286-36.892
			c-4.781-11.542-11.837-22.142-20.939-31.243c-9.099-9.102-19.697-16.158-31.239-20.939c-11.542-4.781-24.026-7.286-36.896-7.286
			H556.573H175.811c-12.87,0-25.354,2.506-36.896,7.286c-11.542,4.781-22.14,11.837-31.239,20.939
			c-9.099,9.099-16.153,19.697-20.934,31.239c-4.78,11.542-7.286,24.026-7.286,36.896v313.505V842.189z"/>
	</g>
	<g>
		<g>
			<g>
				<g>
					<path fill="#FFFFFF" d="M174.859,171c-6.257,0-12.613,2.385-18.606,3.802c-5.993,1.417-11.625,5.011-16.433,9.526
						c-4.808,4.515-9.151,9.149-12.016,13.695c-2.865,4.545-4.804,10.05-4.804,16.308v182.047v182.047V760.47v182.047
						c0,6.257,1.939,13.769,4.804,20.646c2.865,6.877,7.07,13.119,11.878,16.837s10.509,6.54,16.502,10.288
						c5.993,3.749,12.418,4.712,18.675,4.712H364.43h189.571h189.571h189.571c6.257,0,11.689-0.963,16.477-4.712
						c4.787-3.749,8.93-7.499,12.607-11.216c3.677-3.718,5.986-9.496,7.645-16.373S972,948.774,972,942.517V787.36V632.204V477.047
						V321.891l-36.47-36.674l-36.605-36.674l-36.672-38.771L825.582,171H662.901H500.221H337.54H174.859z"/>
					<path fill="#2E4C59" d="M933.142,1003h-379.14h-379.14c-9.015,0-16.815-0.685-23.577-4.411
						c-6.762-3.726-12.487-7.341-17.351-11.101c-6.392-4.948-11.14-11.482-14.26-19.527S115,951.41,115,942.518V578.426V214.333
						c0-8.305,1.357-16.638,4.244-24.362c2.887-7.724,7.35-14.838,13.592-20.703c6.651-6.239,13.312-12.987,20.227-16.313
						c6.915-3.326,14.1-6.954,21.798-6.954h325.36h325.36c2.068,0,4.089,2.414,5.942,3.349s3.537,3.181,4.932,4.709l70.919,78.83
						l70.919,78.597c1.24,1.358,1.91,3.098,2.284,4.842c0.374,1.744,0.424,3.724,0.424,5.563v310.315v310.315
						c0,8.014-0.087,16.402-1.57,24.183c-1.483,7.78-4.339,14.953-9.862,20.537c-3.927,3.97-8.295,6.86-14.054,10.858
						C949.756,1002.095,942.614,1003,933.142,1003z M174.861,180c-4.91,0-9.522,2.904-13.58,4.599
						c-4.058,1.695-7.563,4.944-10.258,7.476c-3.288,3.087-6.177,6.753-7.977,10.251S140,210.075,140,214.333v364.093v364.093
						c0,4.3,1.233,9.404,2.895,13.969s4.152,8.592,6.93,10.738c4.945,3.823,9.544,5.584,13.687,8.255
						c4.143,2.671,7.963,2.52,11.349,2.52h379.14h379.14c3.023,0,5.626,0.351,8.357-2.058c2.731-2.409,5.591-4.779,9.129-8.355
						c2.028-2.051,2.981-6.926,3.707-12.334c0.726-5.408,0.665-10.416,0.665-12.735V635.06V327.601l-67.957-73.801L819.085,180
						H496.973H174.861z"/>
				</g>
			</g>
			<g opacity="0.2">
				<path fill="#2E4C59" d="M204.349,104.092h-14.27h-14.27c-15.337,0-29.949,3.108-43.238,8.73s-25.258,13.755-35.309,23.806
					s-18.185,22.02-23.806,35.31s-8.73,27.902-8.73,43.24v320.869v320.869h69.812h69.812V480.503V104.092z"/>
				<path fill="#2E4C59" d="M204.346,871.645h-69.809H64.728c-4.068,0-7.75-1.648-10.415-4.313S50,860.984,50,856.917V536.048
					V215.178c0-16.802,3.272-33.102,9.514-48.172s15.454-28.909,27.335-40.789c11.877-11.883,25.715-21.097,40.785-27.34
					s31.371-9.515,48.176-9.515h14.268h14.268c4.068,0,7.75,1.648,10.415,4.313s4.313,6.347,4.313,10.415v376.413v376.413
					c0,4.068-1.648,7.75-4.313,10.415S208.414,871.645,204.346,871.645z M79.456,842.189h55.081h55.081V480.504V118.818h-6.904
					h-6.904c-12.87,0-25.354,2.506-36.896,7.286c-11.542,4.781-22.14,11.837-31.239,20.939
					c-9.099,9.099-16.153,19.697-20.934,31.239c-4.78,11.542-7.286,24.026-7.286,36.896v313.505V842.189z"/>
			</g>
			<g>
				<path fill="#EAEEEF" d="M874.607,322.101l25.117-0.053l25.117-0.053l23.178-0.052l23.178-0.052L898.39,245.29l-72.808-76.601
					l1.015,26.714l1.015,26.714l1.015,28.211l1.015,28.211c0,6.411,1.246,12.339,3.506,17.625c2.26,5.286,5.535,9.93,9.591,13.772
					s8.895,6.883,14.284,8.964S868.35,322.101,874.607,322.101z"/>
				<path fill="#2E4C59" d="M874.609,336.829c-8.023,0-15.762-1.438-22.875-4.181c-7.113-2.743-13.6-6.79-19.117-12.008
					c-5.71-5.411-10.136-11.853-13.134-18.984c-2.998-7.131-4.569-14.951-4.569-23.118l-2.025-54.647l-2.025-54.647
					c-0.118-3.061,0.719-5.998,2.291-8.467c1.572-2.47,3.879-4.472,6.701-5.663c2.836-1.191,5.881-1.444,8.745-0.845
					s5.546,2.05,7.657,4.268l72.809,76.601l72.809,76.601c2.025,2.132,3.32,4.765,3.819,7.542c0.499,2.777,0.203,5.696-0.954,8.4
					c-1.156,2.704-3.062,4.935-5.414,6.491c-2.352,1.556-5.151,2.438-8.094,2.444l-48.298,0.106l-48.298,0.106c0,0-0.007,0-0.012,0
					C874.62,336.829,874.615,336.829,874.609,336.829z M841.781,207.107l1.289,35.451l1.289,35.451
					c0.006,4.407,0.744,8.4,2.175,11.949s3.555,6.656,6.334,9.291c2.764,2.615,6.075,4.644,9.755,6.021
					c3.679,1.376,7.727,2.1,11.964,2.103l31.185-0.066l31.185-0.066l-47.587-50.067L841.781,207.107z"/>
			</g>
		</g>
		<g>
			<path fill="#FDE9A4" d="M393.963,389.163v-32.121v-32.121v-32.121V260.68c0-4.989-1.011-9.742-2.84-14.066
				c-1.829-4.323-4.475-8.216-7.744-11.486c-3.27-3.27-7.163-5.916-11.486-7.744c-4.323-1.829-9.076-2.84-14.066-2.84h-64.241
				h-64.241h-64.241h-64.241c-4.989,0-9.742,1.011-14.066,2.84c-4.323,1.829-8.217,4.475-11.486,7.744
				c-3.27,3.27-5.916,7.163-7.744,11.486c-1.829,4.323-2.84,9.076-2.84,14.066v164.953v164.953v164.953V920.49
				c0,15.338,3.108,29.949,8.73,43.239c5.621,13.29,13.755,25.258,23.806,35.31c10.051,10.051,22.02,18.185,35.31,23.807
				s27.902,8.73,43.239,8.73h190.382h190.382h190.382h190.382c15.337,0,29.949-3.108,43.239-8.729
				c13.29-5.621,25.258-13.755,35.309-23.806c10.051-10.051,18.185-22.019,23.806-35.309c5.621-13.29,8.729-27.901,8.729-43.239
				v-116.27v-116.27v-116.27v-116.27c0-9.147-1.854-17.861-5.206-25.787s-8.203-15.064-14.198-21.058
				c-5.994-5.994-13.132-10.845-21.058-14.198s-16.64-5.206-25.787-5.206H835.12H688.067H541.015H393.963z"/>
			<path fill="#2E4C59" d="M937.336,1046.306H556.573H175.811c-16.802,0-33.101-3.272-48.17-9.515s-28.908-15.457-40.791-27.34
				c-11.88-11.88-21.093-25.72-27.335-40.789C53.272,953.592,50,937.292,50,920.49V590.585V260.68
				c0-6.795,1.322-13.385,3.845-19.477c2.523-6.092,6.247-11.685,11.05-16.486c4.804-4.804,10.399-8.529,16.491-11.053
				c6.093-2.524,12.683-3.847,19.477-3.847h128.483H357.83c6.792,0,13.38,1.323,19.472,3.847
				c6.092,2.524,11.687,6.249,16.491,11.053c4.804,4.798,8.529,10.39,11.053,16.482c2.524,6.092,3.847,12.684,3.847,19.481v56.876
				v56.876h286.738H982.17c10.816,0,21.308,2.106,31.008,6.124c9.7,4.018,18.607,9.948,26.253,17.597
				c7.646,7.646,13.575,16.553,17.592,26.253c4.017,9.7,6.123,20.192,6.123,31.008v232.541v232.541
				c0,16.802-3.272,33.101-9.514,48.169c-6.242,15.068-15.454,28.906-27.335,40.786c-11.877,11.883-25.715,21.097-40.785,27.34
				C970.443,1043.034,954.141,1046.306,937.336,1046.306z M100.864,239.273c-2.859,0-5.634,0.557-8.199,1.619
				c-2.565,1.062-4.921,2.63-6.943,4.652c-2.019,2.022-3.586,4.377-4.647,6.94c-1.061,2.564-1.618,5.337-1.618,8.196v329.905V920.49
				c0,12.87,2.506,25.354,7.286,36.896c4.78,11.542,11.835,22.14,20.934,31.239c9.102,9.102,19.702,16.158,31.243,20.939
				s24.025,7.286,36.892,7.286h380.763h380.763c12.87,0,25.354-2.505,36.896-7.286c11.542-4.781,22.14-11.837,31.239-20.939
				c9.099-9.099,16.154-19.697,20.934-31.238c4.78-11.541,7.286-24.024,7.286-36.891V687.955V455.414
				c0-6.884-1.339-13.56-3.894-19.732c-2.555-6.172-6.326-11.839-11.191-16.703c-4.867-4.864-10.536-8.637-16.707-11.194
				c-6.172-2.557-12.847-3.897-19.728-3.897H688.068H393.965c-4.068,0-7.75-1.648-10.415-4.313s-4.313-6.347-4.313-10.415v-64.24
				v-64.24c0-2.859-0.557-5.632-1.618-8.195c-1.061-2.563-2.628-4.916-4.647-6.935c-2.025-2.025-4.382-3.594-6.948-4.657
				c-2.565-1.063-5.338-1.62-8.195-1.62H229.347H100.864z"/>
		</g>
	</g>
	<g opacity="0.2">
		<g>
			<g>
				<path fill="#2E4C59" d="M436.396,839.181c52.73,52.73,121.84,79.095,190.951,79.095s138.221-26.365,190.951-79.095
					c52.73-52.73,79.095-121.84,79.095-190.951s-26.365-138.221-79.095-190.951c-52.73-52.73-121.84-79.095-190.951-79.095
					s-138.221,26.365-190.951,79.095s-79.095,121.84-79.095,190.951S383.666,786.451,436.396,839.181z"/>
				<path fill="#2E4C59" d="M627.349,933.003c-38.034,0-74.929-7.406-109.039-21.535c-34.11-14.129-65.434-34.981-92.328-61.875
					c-26.893-26.89-47.746-58.215-61.875-92.325s-21.535-71.005-21.535-109.036c0-38.034,7.406-74.929,21.535-109.039
					s34.981-65.435,61.875-92.328c55.518-55.515,128.444-83.273,201.368-83.273s145.847,27.758,201.36,83.273
					c26.893,26.893,47.746,58.218,61.875,92.328s21.535,71.005,21.535,109.039c0,38.031-7.406,74.927-21.535,109.036
					s-34.982,65.435-61.875,92.325c-26.89,26.893-58.215,47.746-92.325,61.875C702.275,925.597,665.38,933.003,627.349,933.003z
					 M627.349,393.032c-32.695,0-65.385,6.221-96.123,18.663s-59.526,31.107-84.417,55.996
					c-24.112,24.112-42.807,52.197-55.474,82.78c-12.667,30.582-19.306,63.662-19.306,97.761c0,34.099,6.639,67.177,19.306,97.758
					c12.667,30.581,31.362,58.665,55.474,82.777l0,0l0,0c24.112,24.112,52.197,42.807,82.78,55.474
					c30.582,12.667,63.662,19.306,97.761,19.306s67.177-6.639,97.758-19.306c30.581-12.667,58.665-31.362,82.777-55.474
					s42.807-52.196,55.474-82.777c12.667-30.581,19.306-63.659,19.306-97.758c0-34.099-6.639-67.178-19.306-97.761
					s-31.362-58.668-55.474-82.78c-24.883-24.883-53.673-43.547-84.414-55.991C692.728,399.256,660.036,393.032,627.349,393.032z"/>
			</g>
			<g>
				<path fill="#2E4C59" d="M949.832,1031.302c1.73-0.785,3.46-1.556,5.185-2.315c1.725-0.76,3.445-1.507,5.157-2.245
					c5.656-2.438,11.344-4.807,17.012-7.221s11.318-4.871,16.895-7.486c0.165-0.078,1.164-0.503,2.577-1.121
					c1.414-0.618,3.243-1.428,5.071-2.274c0.173-0.18,0.342-0.357,0.522-0.544s0.373-0.385,0.595-0.609
					c4.028-4.065,8.409-7.456,13.048-10.222c4.638-2.767,9.534-4.91,14.591-6.482l-34.202-34.202l-34.202-34.202
					c-7.158-7.158-16.54-10.737-25.922-10.737s-18.764,3.579-25.922,10.737l-4.371,4.371l-4.371,4.371
					c-7.158,7.158-10.737,16.54-10.737,25.922c0,9.382,3.579,18.764,10.737,25.922l24.169,24.169L949.832,1031.302z"/>
				<path fill="#2E4C59" d="M949.838,1046.03c-1.916,0-3.816-0.373-5.589-1.098c-1.773-0.726-3.42-1.804-4.83-3.217l-24.169-24.169
					l-24.169-24.169c-4.853-4.853-8.615-10.505-11.165-16.661c-2.549-6.155-3.885-12.813-3.885-19.677
					c0-6.861,1.336-13.517,3.885-19.672c2.549-6.154,6.312-11.807,11.165-16.66l4.372-4.372l4.372-4.372
					c4.853-4.853,10.505-8.615,16.661-11.165c6.155-2.549,12.813-3.886,19.677-3.886c6.861,0,13.517,1.336,19.672,3.886
					s11.807,6.312,16.66,11.165l34.203,34.203l34.203,34.203c1.824,1.824,3.104,4.057,3.773,6.462s0.729,4.979,0.11,7.484
					c-0.618,2.503-1.868,4.754-3.58,6.57c-1.712,1.817-3.885,3.199-6.35,3.964c-4.151,1.289-8.039,3.026-11.637,5.198
					c-3.599,2.172-6.908,4.778-9.903,7.804l-0.434,0.446l-0.434,0.446c-0.639,0.673-1.351,1.294-2.114,1.845
					c-0.763,0.551-1.577,1.031-2.42,1.422c-1.456,0.673-2.911,1.325-4.176,1.883c-1.265,0.558-2.339,1.023-3.033,1.322l-0.291,0.127
					l-0.291,0.127c-3.915,1.835-7.918,3.616-11.931,5.355c-4.013,1.74-8.036,3.438-11.991,5.109c-1.7,0.719-3.402,1.437-5.102,2.157
					s-3.399,1.444-5.093,2.175c-1.666,0.719-3.343,1.448-5.026,2.189s-3.374,1.493-5.065,2.258
					c-0.975,0.443-1.981,0.772-2.999,0.991S950.865,1046.03,949.838,1046.03z M936.162,926.369c-2.931,0-5.773,0.57-8.4,1.657
					c-2.627,1.087-5.039,2.692-7.11,4.764l-4.372,4.372l-4.372,4.372c-4.275,4.275-6.412,9.891-6.412,15.508
					c0,5.617,2.137,11.233,6.412,15.508l20.602,20.599l20.602,20.599c0.204-0.089,0.409-0.177,0.613-0.265
					c0.204-0.088,0.408-0.175,0.613-0.265c1.735-0.748,3.469-1.487,5.204-2.223c1.735-0.736,3.469-1.468,5.204-2.201
					c3.826-1.617,7.716-3.259,11.591-4.938c3.874-1.679,7.732-3.395,11.491-5.158l0.593-0.259l0.593-0.259
					c0.434-0.19,1.033-0.45,1.739-0.759c0.706-0.309,1.52-0.667,2.386-1.053c1.893-1.861,3.859-3.616,5.896-5.263
					c2.037-1.648,4.146-3.188,6.323-4.621l-26.844-26.847l-26.844-26.847c-2.071-2.071-4.483-3.676-7.109-4.764
					C941.931,926.939,939.091,926.369,936.162,926.369z"/>
			</g>
			<g>
				<polyline fill="#2E4C59" points="818.298,839.181 862.082,882.965 905.865,926.748 				"/>
				<path fill="#2E4C59" d="M905.866,941.477c-1.884,0-3.768-0.36-5.541-1.079c-1.773-0.719-3.434-1.798-4.872-3.236l-43.785-43.785
					l-43.785-43.785c-2.877-2.877-4.315-6.645-4.315-10.413s1.438-7.537,4.315-10.413s6.645-4.315,10.413-4.315
					c3.768,0,7.537,1.438,10.413,4.315l43.785,43.785l43.785,43.785c2.877,2.877,4.315,6.645,4.315,10.413
					c0,3.768-1.438,7.537-4.315,10.413c-1.438,1.438-3.1,2.517-4.872,3.236C909.634,941.117,907.75,941.477,905.866,941.477z"/>
			</g>
		</g>
	</g>
	<g>
		<g>
			<g>
				<path fill="#EAEEEF" d="M441.212,783.722c52.73,52.73,121.84,79.095,190.951,79.095s138.221-26.365,190.951-79.095
					c52.73-52.73,79.095-121.84,79.095-190.951s-26.365-138.221-79.095-190.951c-52.73-52.73-121.84-79.095-190.951-79.095
					S493.941,349.09,441.212,401.82s-79.095,121.84-79.095,190.951S388.482,730.992,441.212,783.722z"/>
				<path fill="#2E4C59" d="M632.164,877.542c-38.034,0-74.929-7.406-109.039-21.535s-65.435-34.982-92.328-61.875
					c-55.515-55.515-83.273-128.438-83.273-201.362s27.758-145.848,83.273-201.366c55.515-55.515,128.44-83.276,201.364-83.277
					s145.849,27.756,201.364,83.277c26.893,26.893,47.746,58.218,61.875,92.328s21.535,71.005,21.535,109.039
					c0,38.031-7.406,74.927-21.535,109.036s-34.981,65.435-61.875,92.325c-26.89,26.893-58.215,47.746-92.325,61.875
					C707.091,870.136,670.196,877.542,632.164,877.542z M632.164,337.572c-32.695,0-65.385,6.221-96.123,18.663
					s-59.526,31.107-84.417,55.996c-49.771,49.777-74.656,115.159-74.656,180.54s24.885,130.762,74.656,180.536
					c24.112,24.112,52.197,42.807,82.78,55.474s63.662,19.306,97.761,19.306c34.099,0,67.177-6.639,97.758-19.306
					c30.581-12.667,58.665-31.362,82.777-55.474s42.807-52.196,55.474-82.777c12.667-30.581,19.306-63.659,19.306-97.758
					c0-34.099-6.639-67.178-19.306-97.761s-31.362-58.668-55.474-82.78c-24.882-24.882-53.673-43.547-84.414-55.991
					S664.851,337.572,632.164,337.572z"/>
			</g>
			<g>
				<path fill="#FDE9A4" d="M478.17,746.764c42.524,42.524,98.258,63.786,153.993,63.786c55.734,0,111.469-21.262,153.993-63.786
					c42.524-42.524,63.786-98.258,63.786-153.993c0-55.734-21.262-111.469-63.786-153.993
					c-42.524-42.524-98.258-63.786-153.993-63.786c-55.734,0-111.469,21.262-153.993,63.786s-63.786,98.258-63.786,153.993
					C414.384,648.505,435.646,704.24,478.17,746.764z"/>
				<path fill="#2E4C59" d="M632.164,825.171c-29.77,0-59.54-5.665-87.533-16.997s-54.211-28.329-76.875-50.994l0,0l0,0
					c-45.329-45.326-67.994-104.868-67.994-164.409s22.665-119.082,67.994-164.409c45.326-45.329,104.866-67.995,164.406-67.996
					c59.54-0.001,119.079,22.664,164.406,67.996c45.329,45.326,67.994,104.868,67.994,164.409s-22.665,119.082-67.994,164.409
					c-22.662,22.665-48.878,39.662-76.87,50.994C691.704,819.505,661.934,825.171,632.164,825.171z M488.582,736.353
					c39.588,39.582,91.586,59.373,143.584,59.373c51.997,0,103.993-19.791,143.575-59.373
					c39.585-39.585,59.377-91.583,59.377-143.582s-19.792-103.997-59.377-143.582c-39.588-39.579-91.583-59.371-143.579-59.373
					c-51.996-0.001-103.992,19.788-143.579,59.373c-39.585,39.585-59.377,91.583-59.377,143.582S448.997,696.768,488.582,736.353
					L488.582,736.353L488.582,736.353z"/>
			</g>
			<g>
				<path fill="#D6BF9F" d="M1120.403,1085.675l2.332-2.332l2.332-2.332c7.721-7.721,11.582-17.841,11.582-27.961
					s-3.861-20.24-11.582-27.961l-78.066-78.066l-78.066-78.066c-7.721-7.721-17.841-11.582-27.961-11.582
					s-20.24,3.861-27.961,11.582l-2.332,2.332l-2.332,2.332c-7.721,7.721-11.582,17.841-11.582,27.961s3.861,20.24,11.582,27.961
					l78.066,78.066l78.066,78.066c7.721,7.721,17.841,11.582,27.961,11.582S1112.682,1093.397,1120.403,1085.675z"/>
				<path fill="#2E4C59" d="M1092.442,1110.609c-7.364,0-14.73-1.402-21.656-4.206s-13.413-7.01-19.019-12.616l-75.764-75.764
					l-75.764-75.764c-11.213-11.213-16.819-25.944-16.82-40.676c-0.001-14.732,5.604-29.464,16.814-40.68
					c11.25-11.247,26-16.867,40.74-16.872c14.74-0.005,29.469,5.604,40.679,16.814l75.764,75.764l75.764,75.764
					c11.213,11.213,16.819,25.944,16.82,40.676c0.001,14.732-5.604,29.464-16.814,40.68c-0.046,0.043-0.092,0.088-0.137,0.132
					s-0.09,0.089-0.133,0.132c-5.595,5.537-12.053,9.691-18.942,12.461C1107.083,1109.224,1099.763,1110.609,1092.442,1110.609z
					 M940.978,873.451c-3.751,0-7.389,0.731-10.751,2.124s-6.451,3.448-9.103,6.098c-5.5,5.503-8.25,12.707-8.257,19.904
					c-0.007,7.196,2.728,14.385,8.2,19.856l75.764,75.764l75.764,75.764c2.652,2.649,5.74,4.705,9.102,6.098
					c3.362,1.393,6.998,2.124,10.746,2.124c3.748,0,7.384-0.731,10.746-2.124c3.362-1.393,6.45-3.448,9.102-6.098
					c0.035-0.037,0.071-0.073,0.107-0.109c0.037-0.035,0.074-0.07,0.111-0.104c5.394-5.48,8.078-12.644,8.052-19.8
					s-2.762-14.302-8.207-19.748l-75.764-75.764l-75.764-75.764c-2.652-2.649-5.74-4.705-9.102-6.098
					S944.726,873.451,940.978,873.451z"/>
			</g>
			<g opacity="0.35">
				<path fill="#2E4C59" d="M1120.403,1085.675l2.332-2.332l2.332-2.332c7.721-7.721,11.582-17.841,11.582-27.961
					s-3.861-20.24-11.582-27.961l-25.052-25.052l-25.052-25.052c-7.721-7.721-17.841-11.582-27.961-11.582
					s-20.24,3.861-27.961,11.582l-2.332,2.332l-2.332,2.332c-7.721,7.721-11.582,17.841-11.582,27.961s3.861,20.24,11.582,27.961
					l25.052,25.052l25.052,25.052c7.721,7.721,17.841,11.582,27.961,11.582S1112.682,1093.397,1120.403,1085.675z"/>
				<path fill="#2E4C59" d="M1092.442,1110.638c-7.683,0-15.137-1.496-22.027-4.35c-6.89-2.854-13.217-7.067-18.648-12.501
					l-22.751-22.751l-22.751-22.751c-5.434-5.431-9.647-11.758-12.501-18.648c-2.854-6.89-4.35-14.343-4.35-22.027
					c0-7.643,1.48-15.057,4.305-21.917c2.825-6.859,6.994-13.163,12.374-18.586c0.04-0.043,0.081-0.085,0.119-0.125
					c0.039-0.04,0.076-0.079,0.111-0.117c11.219-11.21,25.951-16.814,40.682-16.812c14.731,0.001,29.461,5.608,40.674,16.818
					l22.751,22.751l22.751,22.751c11.213,11.213,16.819,25.944,16.82,40.676c0.001,14.732-5.604,29.464-16.814,40.68
					c-0.046,0.043-0.092,0.088-0.138,0.132s-0.092,0.089-0.138,0.132c-5.419,5.368-11.719,9.529-18.573,12.348
					C1107.483,1109.161,1100.076,1110.638,1092.442,1110.638z M1027.287,987.566c-0.035,0.035-0.068,0.069-0.1,0.102
					s-0.064,0.065-0.096,0.094c-5.471,5.471-8.207,12.66-8.207,19.848s2.736,14.377,8.207,19.849l22.751,22.751l22.751,22.751
					c5.471,5.471,12.66,8.207,19.849,8.207s14.377-2.736,19.848-8.207c0.035-0.037,0.071-0.073,0.107-0.109
					c0.037-0.035,0.074-0.07,0.111-0.104c5.394-5.483,8.078-12.647,8.052-19.802s-2.762-14.3-8.207-19.746l-22.751-22.751
					l-22.751-22.751c-5.448-5.448-12.598-8.185-19.756-8.208C1039.937,979.467,1032.77,982.158,1027.287,987.566z"/>
			</g>
			<g>
				<polyline fill="#EAEEEF" points="823.114,783.722 866.898,827.506 910.681,871.289 				"/>
				<path fill="#2E4C59" d="M910.681,886.016c-1.884,0-3.768-0.36-5.541-1.079c-1.773-0.719-3.434-1.798-4.872-3.236l-43.785-43.785
					l-43.785-43.785c-2.877-2.877-4.315-6.645-4.315-10.413c0-3.768,1.438-7.537,4.315-10.413s6.645-4.315,10.413-4.315
					c3.768,0,7.537,1.438,10.413,4.315l43.785,43.785l43.785,43.785c2.877,2.877,4.315,6.645,4.315,10.413
					c0,3.768-1.438,7.537-4.315,10.413c-1.438,1.438-3.1,2.517-4.872,3.236C914.45,885.657,912.566,886.016,910.681,886.016z"/>
			</g>
		</g>
		
			<linearGradient id="SVGID_1_" gradientUnits="userSpaceOnUse" x1="448.863" y1="-228.3377" x2="828.4874" y2="-228.3377" gradientTransform="matrix(-0.2821 0.9594 0.9594 0.2821 1031.4224 44.4681)">
			<stop  offset="0.0769" style="stop-color:#FFFFFF"/>
			<stop  offset="1" style="stop-color:#FFFFFF;stop-opacity:0"/>
		</linearGradient>
		<path fill="url(#SVGID_1_)" d="M723.058,759.404c46.015-25.1,77.499-66.475,91.205-113.079s9.633-98.436-15.467-144.45
			s-66.475-77.499-113.079-91.205c-46.604-13.706-98.436-9.633-144.45,15.467s-77.499,66.475-91.205,113.079
			s-9.633,98.436,15.467,144.45c25.1,46.014,66.475,77.499,113.079,91.205C625.212,788.577,677.044,784.504,723.058,759.404z"/>
	</g>
	<g opacity="0.2">
		<path fill="#2E4C59" d="M156.411,224.544h-27.775h-27.775c-4.989,0-9.742,1.011-14.065,2.84
			c-4.323,1.829-8.216,4.474-11.486,7.744c-3.27,3.27-5.916,7.163-7.745,11.486c-1.829,4.323-2.84,9.076-2.84,14.066v329.905V920.49
			c0,15.338,3.109,29.95,8.73,43.24s13.755,25.259,23.806,35.31c7.881,7.881,16.945,14.575,26.9,19.804
			c9.955,5.228,20.801,8.991,32.249,11.009V627.198V224.544z"/>
		<path fill="#2E4C59" d="M156.411,1044.58c-0.426,0-0.851-0.019-1.277-0.056c-0.426-0.037-0.851-0.094-1.277-0.168
			c-12.746-2.244-24.913-6.383-36.185-12.255s-21.651-13.476-30.822-22.65c-11.88-11.88-21.093-25.72-27.335-40.789
			C53.272,953.592,50,937.292,50,920.49V590.585V260.68c0-6.795,1.322-13.385,3.845-19.477c2.523-6.092,6.247-11.685,11.05-16.486
			c4.804-4.804,10.399-8.529,16.491-11.053c6.093-2.524,12.683-3.847,19.477-3.847h27.773h27.773c4.067,0,7.75,1.648,10.415,4.313
			s4.313,6.347,4.313,10.415v402.654v402.654c0,2.178-0.482,4.299-1.38,6.226c-0.898,1.927-2.213,3.658-3.878,5.056
			c-1.338,1.122-2.846,1.983-4.45,2.564S158.128,1044.58,156.411,1044.58z M100.864,239.273c-2.859,0-5.634,0.557-8.199,1.619
			c-2.565,1.062-4.921,2.63-6.943,4.652c-2.019,2.022-3.586,4.377-4.647,6.94c-1.061,2.564-1.618,5.337-1.618,8.196v329.905V920.49
			c0,12.87,2.506,25.354,7.286,36.896c4.78,11.542,11.835,22.14,20.934,31.239c4.884,4.882,10.213,9.184,15.908,12.863
			c5.694,3.68,11.754,6.738,18.099,9.131V624.946V239.273h-20.409H100.864z"/>
	</g>
</g>
</svg>
