<svg height="105" viewBox="0 0 105 105" width="105" xmlns="http://www.w3.org/2000/svg" xmlns:xlink="http://www.w3.org/1999/xlink"><linearGradient id="a" gradientUnits="userSpaceOnUse" x1="92.39" x2="95.19" y1="40.62" y2="65.06"><stop offset=".16" stop-color="#21d789"/><stop offset=".54" stop-color="#419fbc"/><stop offset="1" stop-color="#6b57ff"/></linearGradient><linearGradient id="b" gradientUnits="userSpaceOnUse" x1="66.85" x2="73.95" y1="30.12" y2="11.96"><stop offset="0" stop-color="#6b57ff"/><stop offset=".95" stop-color="#21d789"/></linearGradient><linearGradient id="c" gradientUnits="userSpaceOnUse" x1="27.62" x2="34.52" y1="52.97" y2="83.01"><stop offset="0" stop-color="#6b57ff"/><stop offset=".02" stop-color="#685cfb"/><stop offset=".28" stop-color="#4a91ca"/><stop offset=".51" stop-color="#34b7a7"/><stop offset=".69" stop-color="#26ce91"/><stop offset=".8" stop-color="#21d789"/></linearGradient><linearGradient id="d" gradientUnits="userSpaceOnUse" x1="10.48" x2="94.6" y1="52.51" y2="98.96"><stop offset=".08" stop-color="#21d789"/><stop offset=".89" stop-color="#6b57ff"/></linearGradient><linearGradient id="e" gradientUnits="userSpaceOnUse" x1="10.99" x2="95.54" y1="41.31" y2="41.31"><stop offset=".31" stop-color="#21d789"/><stop offset=".49" stop-color="#59a3b2"/><stop offset=".77" stop-color="#b74af7"/><stop offset="1" stop-color="#ff45ed"/></linearGradient><path d="m94.38 19.42 6.12 39.3-11.31 6.58z" fill="url(#a)"/><path d="m94.38 19.42-34.37-14.92-9.59 7.96z" fill="url(#b)"/><path d="m69.37 100.5-53.33-42.49-10.71 32.21z" fill="url(#c)"/><path d="m76.8 73.65-72.3-24.84 64.87 51.69z" fill="url(#d)"/><path d="m4.5 5.18v43.63l83.31 28.63 6.57-58.02z" fill="url(#e)"/><path d="m22.5 22.38h60v60h-60z"/><g fill="#fff"><path d="m28.59 30.18h9.69c7.8 0 13.2 5.36 13.2 12.35v.07c0 7-5.4 12.42-13.2 12.42h-9.69zm5.46 4.93v15h4.23a7.08 7.08 0 0 0 7.48-7.42v-.09a7.13 7.13 0 0 0 -7.48-7.49z"/><path d="m52.45 42.67v-.07a12.75 12.75 0 0 1 13-12.85 13.63 13.63 0 0 1 9.76 3.41l-3.44 4.15a9.18 9.18 0 0 0 -6.49-2.52c-4 0-7.14 3.52-7.14 7.74v.07c0 4.54 3.13 7.88 7.53 7.88a8.73 8.73 0 0 0 5.16-1.48v-3.56h-5.5v-4.72h10.79v10.79a16.09 16.09 0 0 1 -10.61 3.94c-7.74 0-13.06-5.45-13.06-12.78z"/><path d="m28.02 71.12h22.5v3.75h-22.5z"/></g></svg>